<?xml version="1.0" encoding="UTF-8" standalone="no"?>
<!-- Created with Inkscape (http://www.inkscape.org/) -->

<svg
   width="512"
   height="512"
   viewBox="0 0 512 512"
   version="1.1"
   id="svg5"
   inkscape:version="1.1.1 (3bf5ae0d25, 2021-09-20)"
   sodipodi:docname="explosion.svg"
   inkscape:export-filename="D:\Users\vvbnz\Desktop\КУРСЫ\ПРОЕКТ\NEW GEN\explosion.png"
   inkscape:export-xdpi="96"
   inkscape:export-ydpi="96"
   xmlns:inkscape="http://www.inkscape.org/namespaces/inkscape"
   xmlns:sodipodi="http://sodipodi.sourceforge.net/DTD/sodipodi-0.dtd"
   xmlns="http://www.w3.org/2000/svg"
   xmlns:svg="http://www.w3.org/2000/svg">
  <sodipodi:namedview
     id="namedview7"
     pagecolor="#ffffff"
     bordercolor="#666666"
     borderopacity="1.0"
     inkscape:pageshadow="2"
     inkscape:pageopacity="0.0"
     inkscape:pagecheckerboard="0"
     inkscape:document-units="px"
     showgrid="false"
     units="px"
     inkscape:zoom="1.1267481"
     inkscape:cx="197.52521"
     inkscape:cy="253.49676"
     inkscape:window-width="1920"
     inkscape:window-height="1009"
     inkscape:window-x="-8"
     inkscape:window-y="-8"
     inkscape:window-maximized="1"
     inkscape:current-layer="layer1" />
  <defs
     id="defs2" />
  <g
     inkscape:label="Слой 1"
     inkscape:groupmode="layer"
     id="layer1">
    <path
       style="fill:#ffe200;fill-opacity:1;stroke:#000000;stroke-width:6;stroke-linecap:round;stroke-linejoin:round;stroke-miterlimit:4;stroke-dasharray:none;stroke-opacity:1"
       d="m 208.11186,237.91387 -1.11554,-224.14688 47.96782,212.76886 c 0,0 -15.05965,-28.44503 -19.52178,-30.72063 -4.46212,-2.27561 29.56156,-155.309896 29.56156,-155.309896 l 32.35039,143.931886 c 0,0 -61.35418,55.18337 -59.12312,51.20106 2.23105,-3.98231 101.51328,-208.786563 101.51328,-208.786563 L 288.43005,241.89618 248.27095,225.39805 378.78804,82.035071 288.43005,247.01628 204.76527,224.26026 412.25397,134.37394 267.23499,265.2211"
       id="path2166" />
    <path
       style="fill:#ffe200;fill-opacity:1;stroke:#000000;stroke-width:6;stroke-linecap:round;stroke-linejoin:round;stroke-miterlimit:4;stroke-dasharray:none;stroke-opacity:1"
       d="m 224.35291,289.91834 -213.92875,-51.3032 214.03754,2.1798 c 0,0 -30.63643,8.2836 -33.84897,12.17657 -3.21255,3.89296 -141.137087,-65.6301 -141.137087,-65.6301 l 144.767087,1.57218 c 0,0 38.25783,73.74724 34.98338,70.60358 C 225.95163,256.37352 53.935979,110.02938 53.935979,110.02938 L 246.92883,211.19858 221.81211,247.16649 115.66857,84.213048 251.80956,212.39575 210.55511,290.04465 173.38549,63.262908 264.20752,237.67134"
       id="path2166-1" />
    <path
       style="fill:#ffe200;fill-opacity:1;stroke:#000000;stroke-width:6;stroke-linecap:round;stroke-linejoin:round;stroke-miterlimit:4;stroke-dasharray:none;stroke-opacity:1"
       d="M 272.0995,281.46179 237.81402,502.8669 224.06234,284.99639 c 0,0 10.37248,30.5472 14.41712,33.52597 4.04465,2.97876 -53.69484,148.42806 -53.69484,148.42806 l -9.20544,-147.36684 c 0,0 69.26542,-44.38653 66.43478,-40.82264 -2.83063,3.56392 -133.1501,189.38964 -133.1501,189.38964 l 84.59425,-203.81046 37.03047,22.8785 L 79.041684,407.27488 194.26642,259.28683 273.24691,295.48686 54.275304,350.12262 218.05895,244.80061"
       id="path2166-4" />
    <path
       style="fill:#ffe200;fill-opacity:1;stroke:#000000;stroke-width:6;stroke-linecap:round;stroke-linejoin:round;stroke-miterlimit:4;stroke-dasharray:none;stroke-opacity:1"
       d="m 283.2404,231.93889 212.10353,58.65977 -213.84254,-9.5683 c 0,0 30.89377,-7.22111 34.23367,-11.00093 3.33991,-3.77982 138.87813,70.46531 138.87813,70.46531 l -144.63194,-6.56943 c 0,0 -35.78845,-75.02586 -32.62018,-71.77094 3.16826,3.25492 170.22857,155.45411 170.22857,155.45411 l -189.52472,-107.7744 26.296,-35.08013 100.67474,166.52472 -131.80895,-132.80959 43.80776,-76.18007 29.62209,227.93509 -84.98187,-177.44416"
       id="path2166-1-3" />
    <path
       id="path857"
       style="fill:#ff8c00;fill-opacity:1;stroke:#000000;stroke-width:6;stroke-linecap:round;stroke-linejoin:round;stroke-miterlimit:4;stroke-dasharray:none;stroke-opacity:1"
       d="m 230.53046,71.027169 c -3.56794,-0.02201 -7.3293,0.122258 -11.29137,0.445942 -60.05807,4.905729 -63.73455,41.765529 -50.99758,79.204019 -25.26491,-9.06464 -50.40827,-1.96614 -65.24212,45.50848 -6.87124,21.9909 -7.155381,38.14466 -3.123109,49.9762 -32.05918,13.9126 -51.44801,41.64249 -24.409091,95.87005 29.42689,59.01671 64.34362,53.46572 93.90114,29.51052 4.40227,3.94466 9.53913,7.9469 15.61391,12.00816 11.31879,7.5671 21.09519,12.20006 29.66705,14.69721 8.12158,21.44355 30.15597,33.96218 78.59907,22.103 43.3674,-10.6166 59.68018,-28.73989 61.58282,-48.69899 10.82863,-2.88498 21.5618,-12.51245 31.42082,-32.47722 11.89974,-24.09729 11.235,-41.63908 3.53885,-54.41026 30.55961,-5.18526 52.63433,-24.18761 36.91637,-74.77501 -12.23231,-39.36905 -33.88905,-50.07158 -57.38733,-46.88162 -0.96823,-12.99488 -7.86406,-27.01208 -23.81185,-41.80305 C 320.87798,98.461142 302.28186,98.943436 288.30056,110.52822 282.31388,87.940302 265.90849,71.245758 230.53046,71.027169 Z" />
    <path
       style="fill:none;stroke:#000000;stroke-width:6;stroke-linecap:round;stroke-linejoin:round;stroke-miterlimit:4;stroke-dasharray:none;stroke-opacity:1"
       d="m 288.30056,110.52822 c -33.6153,19.29452 -30.2687,65.94438 -30.2687,65.94438"
       id="path1792" />
    <path
       style="fill:none;stroke:#000000;stroke-width:6;stroke-linecap:round;stroke-linejoin:round;stroke-miterlimit:4;stroke-dasharray:none;stroke-opacity:1"
       d="M 389.79085,284.76428 C 369.8638,251.85195 332.21465,267.4967 332.21465,267.4967"
       id="path1796" />
    <path
       style="fill:none;stroke:#000000;stroke-width:6;stroke-linecap:round;stroke-linejoin:round;stroke-miterlimit:4;stroke-dasharray:none;stroke-opacity:1"
       d="M 214.64929,398.24775 C 213.9684,361.36533 234.0015,345.24927 234.0015,345.24927"
       id="path1800"
       sodipodi:nodetypes="cc" />
    <path
       style="fill:none;stroke:#000000;stroke-width:6;stroke-linecap:round;stroke-linejoin:round;stroke-miterlimit:4;stroke-dasharray:none;stroke-opacity:1"
       d="m 99.876281,246.16181 c 31.821729,-18.7726 62.498829,-5.40342 62.498829,-5.40342"
       id="path1804" />
    <path
       id="path857-8-6-4"
       style="opacity:0.474419;fill:#000000;fill-opacity:1;stroke:#000000;stroke-width:6.45567;stroke-linecap:round;stroke-linejoin:round;stroke-miterlimit:4;stroke-dasharray:none;stroke-opacity:1"
       d="m 302.62875,384.7223 c 2.69115,-0.79633 5.48748,-1.7493 8.39132,-2.86929 44.01713,-16.97697 37.82724,-42.76766 19.14131,-65.21812 21.22124,0.3923 38.4231,-10.13049 38.05251,-45.64453 -0.17161,-16.45059 -3.88338,-27.45156 -9.79391,-34.5449 20.7519,-16.70855 28.6083,-39.89072 -4.92347,-70.45577 -36.49323,-33.26444 -61.42817,-21.5671 -77.85644,1.37162 -4.27246,-1.66963 -9.11188,-3.21123 -14.67169,-4.5795 -10.35922,-2.54946 -18.84436,-3.46317 -25.90375,-3.20472 -11.32465,-12.67103 -30.95344,-16.13629 -64.53752,2.90734 -30.06526,17.0483 -37.94069,33.02719 -34.5226,46.97251 -7.45025,4.41533 -13.19017,13.37376 -15.75994,29.13195 -3.10169,19.02002 1.66158,30.74498 10.55847,37.64138 -21.74393,10.45902 -33.74307,28.3432 -9.61786,59.01792 18.77519,23.87223 37.67838,26.19383 54.59173,18.69124 3.88677,8.57764 12.48403,16.49957 28.08325,22.88721 24.09179,9.86517 37.973,5.31034 45.68232,-5.71177 9.99568,13.93121 26.40198,21.50354 53.08627,13.60743 z" />
    <path
       id="path857-8-6"
       style="fill:#f14100;fill-opacity:1;stroke:#000000;stroke-width:6.12181;stroke-linecap:round;stroke-linejoin:round;stroke-miterlimit:4;stroke-dasharray:none;stroke-opacity:1"
       d="m 303.86679,371.70023 c 2.42,-0.79633 4.93458,-1.7493 7.54584,-2.86929 39.58212,-16.97697 34.0159,-42.76766 17.2127,-65.21812 19.08306,0.3923 34.55172,-10.13049 34.21847,-45.64453 -0.15432,-16.45059 -3.4921,-27.45156 -8.80711,-34.5449 18.66101,-16.70855 25.72583,-39.89072 -4.4274,-70.45577 -32.81629,-33.26444 -55.23888,-21.5671 -70.01189,1.37162 -3.84198,-1.66963 -8.1938,-3.21123 -13.19342,-4.5795 -9.31546,-2.54946 -16.94567,-3.46317 -23.29378,-3.20472 -10.18362,-12.67103 -27.83468,-16.13629 -58.03494,2.90734 -27.03599,17.0483 -34.11792,33.02719 -31.04422,46.97251 -6.69959,4.41533 -11.86118,13.37376 -14.17203,29.13195 -2.78917,19.02002 1.49417,30.74498 9.49464,37.64138 -19.55309,10.45902 -30.34324,28.3432 -8.6488,59.01792 16.88347,23.87223 33.88204,26.19383 49.09126,18.69124 3.49515,8.57764 11.22618,16.49957 25.25368,22.88721 21.66438,9.86517 34.14697,5.31034 41.07952,-5.71177 8.98855,13.93121 23.74181,21.50354 47.73748,13.60743 z" />
    <path
       id="path857-8"
       style="fill:#ffffff;fill-opacity:1;stroke:#000000;stroke-width:6;stroke-linecap:round;stroke-linejoin:round;stroke-miterlimit:4;stroke-dasharray:none;stroke-opacity:1"
       d="m 287.67102,346.96904 c 1.82364,-0.60539 3.71855,-1.32986 5.68631,-2.18129 29.82788,-12.90628 25.63335,-32.51295 12.97097,-49.58028 14.38041,0.29824 26.03712,-7.70143 25.78599,-34.7 -0.1163,-12.5061 -2.63153,-20.86929 -6.63677,-26.2618 14.06237,-12.70221 19.38621,-30.32582 -3.33636,-53.56205 -24.72935,-25.28836 -41.62632,-16.39579 -52.75882,1.04274 -2.89519,-1.26929 -6.1746,-2.44125 -9.94214,-3.48145 -7.01986,-1.93815 -12.76975,-2.63275 -17.5535,-2.4363 -7.67407,-9.63279 -20.97536,-12.26717 -43.73335,2.21023 -20.3735,12.9605 -25.71023,25.10802 -23.39398,35.70955 -5.04861,3.35663 -8.93822,10.16704 -10.6796,22.14677 -2.10184,14.45943 1.12595,23.37301 7.15487,28.61582 -14.73462,7.95117 -22.86575,21.54713 -6.51747,44.86674 12.72286,18.1482 25.53247,19.91313 36.99366,14.20949 2.63385,6.5209 8.45971,12.54335 19.03041,17.39936 16.32562,7.49972 25.73212,4.03704 30.95627,-4.3422 6.7735,10.59081 17.89111,16.34747 35.97351,10.34467 z" />
    <path
       style="fill:#fff400;fill-opacity:1;stroke:#fff400;stroke-width:2.663;stroke-linecap:round;stroke-linejoin:round;stroke-miterlimit:4;stroke-dasharray:none;stroke-opacity:1;paint-order:markers fill stroke"
       d="m 165.95132,126.44139 c -0.99617,-6.16962 -0.45091,-15.13002 1.28568,-21.12776 1.63924,-5.661544 4.26867,-10.337736 8.12513,-14.449749 8.09596,-8.632464 19.41159,-13.509095 37.55585,-16.18523 7.43604,-1.096759 25.78499,-1.12905 31.50659,-0.05545 12.09523,2.269549 20.77897,6.356671 27.77082,13.070713 2.92417,2.807986 6.10767,6.797123 5.42439,6.797123 -0.1999,0 -2.15928,-0.707908 -4.35419,-1.573129 -8.00987,-3.15745 -19.0016,-5.848497 -28.12525,-6.885756 -6.98233,-0.793814 -21.7194,-0.307727 -27.34106,0.901818 -20.78603,4.472278 -37.05132,16.5345 -48.61928,36.05572 -1.1973,2.02047 -2.35713,3.97311 -2.5774,4.33921 -0.30291,0.50344 -0.46161,0.28718 -0.65128,-0.88751 z"
       id="path1224" />
    <path
       style="fill:#fff400;fill-opacity:1;stroke:#fff400;stroke-width:2.663;stroke-linecap:round;stroke-linejoin:round;stroke-miterlimit:4;stroke-dasharray:none;stroke-opacity:1;paint-order:markers fill stroke"
       d="m 358.57828,144.25652 c -10.64751,-12.71997 -26.71604,-22.08097 -43.44419,-25.30918 -9.32908,-1.80032 -17.9068,-2.11097 -29.88406,-1.08227 l -3.10629,0.26679 1.67867,-1.35527 c 0.92327,-0.7454 2.72047,-2.01747 3.99379,-2.82682 1.27332,-0.80935 3.21373,-2.15438 4.31203,-2.98896 2.90862,-2.21022 7.76058,-4.39431 11.55324,-5.20065 9.6447,-2.05051 21.35446,2.27604 34.26107,12.65888 6.79761,5.46839 14.87806,14.13162 19.27894,20.66937 1.96776,2.92322 4.73848,8.19517 4.45568,8.47797 -0.0983,0.0983 -1.49278,-1.39115 -3.09888,-3.30986 z"
       id="path1448" />
    <path
       style="fill:#fff400;fill-opacity:1;stroke:#fff400;stroke-width:2.663;stroke-linecap:round;stroke-linejoin:round;stroke-miterlimit:4;stroke-dasharray:none;stroke-opacity:1;paint-order:markers fill stroke"
       d="m 409.44768,271.49068 c 0.16804,-1.55421 0.63215,-5.82119 1.03135,-9.48216 1.0559,-9.68355 1.04381,-32.36774 -0.0219,-41.04733 -3.324,-27.07255 -11.59673,-44.02104 -26.02789,-53.32381 -3.719,-2.39738 -3.41693,-2.63055 1.8546,-1.43156 15.85314,3.60572 28.31298,17.63015 36.0308,40.55521 10.34793,30.73752 7.68375,52.50827 -7.84079,64.07234 -1.75859,1.30995 -3.67765,2.62956 -4.26458,2.93245 l -1.06714,0.5507 z"
       id="path1487" />
    <path
       style="fill:#fff400;fill-opacity:1;stroke:#fff400;stroke-width:2.663;stroke-linecap:round;stroke-linejoin:round;stroke-miterlimit:4;stroke-dasharray:none;stroke-opacity:1;paint-order:markers fill stroke"
       d="m 369.80426,357.1488 c -0.0104,-0.14686 0.89358,-1.64453 2.00886,-3.32816 4.51407,-6.81443 7.88958,-15.60046 9.59627,-24.97792 1.35021,-7.4188 1.33739,-20.56826 -0.028,-28.67128 -1.52945,-9.07692 -4.46536,-19.68361 -7.40055,-26.73624 -0.33012,-0.79321 -0.48739,-1.4422 -0.3495,-1.4422 0.6921,0 4.80001,3.4511 7.53456,6.32987 13.73106,14.45524 14.36996,33.48941 1.96966,58.68023 -3.52391,7.15871 -8.26982,14.73258 -11.53966,18.41582 -0.97502,1.0983 -1.78128,1.87674 -1.79168,1.72988 z"
       id="path1526" />
    <path
       style="fill:#fff400;fill-opacity:1;stroke:#fff400;stroke-width:2.663;stroke-linecap:round;stroke-linejoin:round;stroke-miterlimit:4;stroke-dasharray:none;stroke-opacity:1;paint-order:markers fill stroke"
       d="m 79.486363,342.19696 c -2.77152,-5.23048 -6.5929,-13.99733 -8.54165,-19.59595 -10.48123,-30.11181 -4.60073,-52.82307 17.40706,-67.22829 3.93948,-2.57859 22.019427,-11.81115 24.398007,-12.45888 0.76656,-0.20876 0.12583,0.82253 -2.67589,4.30692 -4.45359,5.53875 -8.70446,11.59197 -12.540909,17.8582 -17.358548,28.35241 -22.987728,55.26806 -16.374798,78.29534 0.37551,1.30757 0.61348,2.44668 0.52882,2.53133 -0.0847,0.0847 -1.07494,-1.58424 -2.20064,-3.70867 z"
       id="path1565" />
    <path
       style="fill:#fff400;fill-opacity:1;stroke:#fff400;stroke-width:2.663;stroke-linecap:round;stroke-linejoin:round;stroke-miterlimit:4;stroke-dasharray:none;stroke-opacity:1;paint-order:markers fill stroke"
       d="m 106.84778,194.00308 c 0.69056,-2.76014 3.5824,-9.98331 5.99602,-14.97673 8.0549,-16.66437 18.75819,-26.47691 31.24874,-28.64815 3.53601,-0.61467 12.7619,-0.31914 15.71664,0.50345 l 1.9168,0.53363 -3.9137,1.64585 c -9.05808,3.80924 -17.90765,8.79565 -25.87957,14.58219 -8.71378,6.32502 -19.35203,17.68761 -23.58901,25.19511 -1.49225,2.64414 -1.95651,3.00558 -1.49592,1.16465 z"
       id="path1604" />
  </g>
</svg>
