<?xml version="1.0" encoding="UTF-8" standalone="no"?>
<!-- Created with Inkscape (http://www.inkscape.org/) -->

<svg
   width="512"
   height="512"
   viewBox="0 0 512 512"
   version="1.1"
   id="svg5"
   inkscape:version="1.1.1 (3bf5ae0d25, 2021-09-20)"
   sodipodi:docname="heart_box.svg"
   inkscape:export-filename="D:\Users\vvbnz\Desktop\КУРСЫ\ПРОЕКТ\NEW GEN\coin_box.png"
   inkscape:export-xdpi="96"
   inkscape:export-ydpi="96"
   xmlns:inkscape="http://www.inkscape.org/namespaces/inkscape"
   xmlns:sodipodi="http://sodipodi.sourceforge.net/DTD/sodipodi-0.dtd"
   xmlns="http://www.w3.org/2000/svg"
   xmlns:svg="http://www.w3.org/2000/svg">
  <sodipodi:namedview
     id="namedview7"
     pagecolor="#ffffff"
     bordercolor="#666666"
     borderopacity="1.0"
     inkscape:pageshadow="2"
     inkscape:pageopacity="0.0"
     inkscape:pagecheckerboard="0"
     inkscape:document-units="px"
     showgrid="false"
     units="px"
     inkscape:zoom="0.37861251"
     inkscape:cx="179.60315"
     inkscape:cy="48.862622"
     inkscape:window-width="1920"
     inkscape:window-height="1009"
     inkscape:window-x="-8"
     inkscape:window-y="-8"
     inkscape:window-maximized="1"
     inkscape:current-layer="layer1" />
  <defs
     id="defs2" />
  <g
     inkscape:label="Слой 1"
     inkscape:groupmode="layer"
     id="layer1">
    <rect
       style="fill:#f60b00;fill-opacity:1;stroke:#000000;stroke-width:8;stroke-linecap:round;stroke-linejoin:round;stroke-miterlimit:4;stroke-dasharray:none;stroke-opacity:1;paint-order:markers fill stroke"
       id="rect846"
       width="483.77954"
       height="483.77954"
       x="-498.89764"
       y="15.118111"
       rx="80.291519"
       ry="75.874168"
       transform="scale(-1,1)" />
    <rect
       style="fill:#950500;fill-opacity:1;stroke:#000000;stroke-width:8;stroke-linecap:round;stroke-linejoin:round;stroke-miterlimit:4;stroke-dasharray:none;stroke-opacity:1;paint-order:markers fill stroke"
       id="rect846-4"
       width="396.56378"
       height="390.0271"
       x="-455.96591"
       y="61.785099"
       rx="65.816566"
       ry="61.170387"
       transform="scale(-1,1)" />
    <rect
       style="fill:#a59d96;fill-opacity:1;stroke:#000000;stroke-width:8;stroke-linecap:round;stroke-linejoin:round;stroke-miterlimit:4;stroke-dasharray:none;stroke-opacity:1;paint-order:markers fill stroke"
       id="rect846-1-7"
       width="340.9245"
       height="335.30496"
       x="-427.67938"
       y="90.75135"
       rx="56.582287"
       ry="52.587944"
       transform="scale(-1,1)" />
    <path
       style="opacity:0.176744;fill:#000000;fill-opacity:1;stroke:#000000;stroke-width:7.471;stroke-linecap:round;stroke-linejoin:round;stroke-miterlimit:4;stroke-dasharray:none;stroke-opacity:1;paint-order:markers fill stroke"
       d="m 439.44307,494.42237 c 14.76544,-3.13264 27.46264,-9.97247 38.2656,-20.61322 12.09296,-11.91138 18.80931,-25.84643 20.61688,-42.77581 0.64035,-5.99744 0.87069,-66.22911 0.68277,-178.53794 L 498.72471,83.008301 496.66082,75.73696 c -6.08411,-21.435018 -23.07228,-40.317048 -43.54011,-48.394013 -8.98536,-3.545781 -8.93662,-3.556511 -7.89344,1.737637 1.21884,6.185615 0.12991,15.708637 -2.42921,21.244252 -2.58895,5.600126 -7.66776,10.976546 -12.88162,13.636457 l -3.81862,1.948116 5.97227,3.324985 c 3.59279,2.000241 9.13952,6.522669 13.92178,11.350885 9.0939,9.18128 13.76489,17.359352 16.80326,29.419521 1.81788,7.21567 1.8609,10.6502 1.8609,148.56039 0,137.91019 -0.043,141.34472 -1.8609,148.56039 -3.12306,12.39632 -7.65711,20.22493 -17.25789,29.79794 -9.56809,9.54042 -18.33078,14.7635 -30.84022,18.3826 l -7.47051,2.1613 H 262.48545 c -163.424368,0 -150.20667,0.59156 -166.206888,-7.43858 l -7.89209,-3.96086 0.54219,5.23281 c 0.74774,7.21645 -0.90302,12.5283 -5.41437,17.42253 -5.26031,5.70676 -11.61865,7.96422 -24.51501,8.7038 l -10.18682,0.58419 5.51775,3.84836 c 7.5982,5.29934 13.78975,8.28805 23.44,11.31465 l 8.22453,2.57944 172.755458,0.17631 c 163.30704,0.16665 173.18958,0.0842 180.69287,-1.5077 z"
       id="path4107" />
    <path
       style="opacity:0.306977;fill:#000000;fill-opacity:1;stroke:#000000;stroke-width:7.471;stroke-linecap:round;stroke-linejoin:round;stroke-miterlimit:4;stroke-dasharray:none;stroke-opacity:1;paint-order:markers fill stroke"
       d="m 400.86829,448.72179 c 23.93338,-3.08515 43.92209,-19.74001 50.86405,-42.38064 1.63593,-5.33542 1.71793,-12.37859 1.71793,-147.5425 0,-135.16392 -0.082,-142.20708 -1.71793,-147.5425 -3.99145,-13.01779 -12.67593,-24.853576 -23.50697,-32.036875 l -4.65712,-3.088666 -0.54519,5.423199 c -0.29986,2.98276 -1.21814,6.715427 -2.04063,8.294817 -1.65769,3.18319 -8.49197,9.734865 -10.15477,9.734865 -0.5844,0 0.68584,1.38354 2.82274,3.07453 5.79527,4.58596 11.20917,11.53265 14.73199,18.90293 6.23591,13.04647 5.99881,7.14688 5.71463,142.19256 l -0.25683,122.04374 -2.17891,6.06979 c -7.27119,20.25534 -22.76631,33.97626 -44.00444,38.96596 -6.55234,1.53941 -15.51733,1.65492 -128.43973,1.65492 -134.58061,0 -127.87411,0.28894 -141.36351,-6.09054 -3.23387,-1.52938 -6.05215,-2.78069 -6.26283,-2.78069 -0.21068,0 -0.38463,1.1556 -0.38656,2.56799 -0.005,3.55905 -3.07894,8.25222 -6.59698,10.07147 -1.62128,0.8384 -5.23054,1.75997 -8.020548,2.04792 l -5.07274,0.52356 3.82863,2.1747 c 6.346018,3.60461 16.269038,6.76884 24.440018,7.7934 9.48945,1.18987 271.81679,1.12086 281.0857,-0.074 z"
       id="path4146" />
    <path
       style="opacity:0.424806;fill:#000000;fill-opacity:1;stroke:#000000;stroke-width:7.57716;stroke-linecap:round;stroke-linejoin:round;stroke-miterlimit:4;stroke-dasharray:none;stroke-opacity:1;paint-order:markers fill stroke"
       d="m 384.33461,423.96014 c 18.13213,-4.88988 31.86793,-17.78354 36.81735,-34.56003 1.81471,-6.15115 1.84843,-8.96235 1.60192,-133.55517 l -0.25182,-127.27176 -2.52006,-6.04767 c -3.36646,-8.07886 -8.37423,-14.908 -14.64328,-19.96921 -2.83949,-2.29239 -5.306,-4.020608 -5.48114,-3.840452 -0.17513,0.180147 0.74439,8.268472 2.04338,17.974072 7.24333,54.11928 10.20071,93.97506 10.18304,137.23395 -0.0265,64.85893 -7.96202,101.08549 -25.94535,118.44345 -17.68761,17.07256 -64.41068,30.18348 -132.18989,37.09369 -33.57526,3.42307 -61.65435,4.95929 -118.12738,6.46285 l -23.34533,0.62156 7.27202,3.53773 c 3.99961,1.94577 9.93108,4.04174 13.18105,4.65771 4.31187,0.81723 38.18761,1.10565 125.32947,1.06706 113.53117,-0.0503 119.74865,-0.14141 126.07602,-1.84778 z"
       id="path4185" />
    <path
       id="path14568-0"
       style="opacity:0.29922481;fill:#020101;fill-opacity:1;stroke:#000000;stroke-width:8;stroke-linecap:round;stroke-linejoin:round;stroke-miterlimit:4;stroke-dasharray:none;stroke-opacity:1;paint-order:markers fill stroke"
       d="m 213.60884,164.34502 c -33.0026,-9e-5 -59.75682,26.75326 -59.75782,59.75586 0.0326,13.83182 4.86255,27.22398 13.66602,37.89258 l -0.006,0.002 c 0,0 0.0487,0.0545 4.35309,5.00097 4.30439,4.94648 85.61456,98.41661 100.0004,98.18459 14.47411,-0.23346 63.99806,-55.78715 86.23903,-80.83698 22.24096,-25.04983 34.7259,-46.57361 34.77854,-59.16888 9e-5,-33.00336 -36.65904,-71.31325 -69.6624,-71.31317 -30.95349,0.0752 -54.78613,63.92863 -54.78613,63.92863 0,0 -23.48701,-53.43571 -54.8249,-53.44554 z"
       sodipodi:nodetypes="cccccscccccc" />
    <path
       id="path14568"
       style="opacity:1;fill:#ff0017;fill-opacity:1;stroke:#000000;stroke-width:8;stroke-linecap:round;stroke-linejoin:round;stroke-miterlimit:4;stroke-dasharray:none;stroke-opacity:1;paint-order:markers fill stroke"
       d="m 198.42233,150.55063 c -33.0026,-9e-5 -59.75682,26.75326 -59.75782,59.75586 0.0326,13.83182 4.86255,27.22398 13.66602,37.89258 l 4.32274,4.97573 c 4.32874,4.97372 85.63891,98.44385 100.02475,98.21183 14.47411,-0.23346 63.99806,-55.78715 86.23903,-80.83698 22.24096,-25.04983 33.09173,-40.73728 34.77854,-59.16888 9e-5,-33.00336 -25.43384,-60.74836 -58.4372,-60.74828 -41.9258,-3.19315 -59.73843,45.44007 -59.73843,45.44007 0,0 -16.68652,-46.67931 -61.0978,-45.52187 z"
       sodipodi:nodetypes="ccccscccccc" />
    <path
       id="path14568-3"
       style="opacity:0.421705;fill:#000000;fill-opacity:1;stroke:#000000;stroke-width:8;stroke-linecap:round;stroke-linejoin:round;stroke-miterlimit:4;stroke-dasharray:none;stroke-opacity:1;paint-order:markers fill stroke"
       d="m 350.20508,159.84375 c 5.2973,9.19639 8.36722,19.89495 8.36719,31.25391 -1.68681,18.4316 -12.53834,34.11814 -34.7793,59.16796 -22.24097,25.04983 -73.86525,84.8066 -88.33936,85.04006 3.24004,5.54244 14.16343,13.24625 21.22412,16.08104 14.47411,-0.23346 63.99927,-55.78806 86.24024,-80.83789 22.24096,-25.04983 33.09053,-40.73637 34.77734,-59.16797 6e-5,-21.5038 -10.83656,-40.71813 -27.49023,-51.53711 z"
       sodipodi:nodetypes="ccsccscc" />
    <path
       style="fill:none;stroke:#ffffff;stroke-width:8;stroke-linecap:round;stroke-linejoin:round;stroke-miterlimit:4;stroke-dasharray:none;stroke-opacity:1"
       d="m 162.04333,203.74839 c -0.0254,-19.06584 18.27698,-32.28254 32.03532,-32.56653"
       id="path30722"
       sodipodi:nodetypes="cc" />
  </g>
</svg>
