<?xml version="1.0" encoding="UTF-8" standalone="no"?>
<!-- Created with Inkscape (http://www.inkscape.org/) -->

<svg
   width="512"
   height="512"
   viewBox="0 0 135.46666 135.46667"
   version="1.1"
   id="svg5"
   inkscape:version="1.1.1 (3bf5ae0d25, 2021-09-20)"
   sodipodi:docname="knife.svg"
   inkscape:export-filename="D:\Users\vvbnz\Desktop\КУРСЫ\ПРОЕКТ\NEW GEN\knife.png"
   inkscape:export-xdpi="96"
   inkscape:export-ydpi="96"
   xmlns:inkscape="http://www.inkscape.org/namespaces/inkscape"
   xmlns:sodipodi="http://sodipodi.sourceforge.net/DTD/sodipodi-0.dtd"
   xmlns="http://www.w3.org/2000/svg"
   xmlns:svg="http://www.w3.org/2000/svg">
  <sodipodi:namedview
     id="namedview7"
     pagecolor="#ffffff"
     bordercolor="#666666"
     borderopacity="1.0"
     inkscape:pageshadow="2"
     inkscape:pageopacity="0.0"
     inkscape:pagecheckerboard="0"
     inkscape:document-units="px"
     showgrid="false"
     units="px"
     inkscape:zoom="1.5144501"
     inkscape:cx="279.96962"
     inkscape:cy="401.13571"
     inkscape:window-width="1920"
     inkscape:window-height="1009"
     inkscape:window-x="-8"
     inkscape:window-y="-8"
     inkscape:window-maximized="1"
     inkscape:current-layer="layer1" />
  <defs
     id="defs2" />
  <g
     inkscape:label="Слой 1"
     inkscape:groupmode="layer"
     id="layer1">
    <path
       id="rect2086"
       style="opacity:1;fill:#833e18;stroke:#000000;stroke-width:0.890858;stroke-linecap:round;stroke-linejoin:round;paint-order:markers fill stroke"
       d="m 34.941642,95.147476 c 7.756956,0.42727 15.568159,0.56677 24.134269,0 1.036062,-0.0686 1.874237,0.75542 1.874237,1.693765 v 2.951521 c 0,0.938338 -0.848453,1.854668 -1.874237,1.693758 -8.729413,-1.36931 -16.54822,-0.91741 -24.134269,0 -1.030816,0.12466 -1.874237,-0.75542 -1.874237,-1.693758 v -2.951521 c 0,-0.938345 0.837481,-1.750875 1.874237,-1.693765 z"
       sodipodi:nodetypes="sssssssss" />
    <path
       style="fill:#a1a1a1;fill-opacity:1;stroke:#000000;stroke-width:1.05833;stroke-linecap:round;stroke-linejoin:round;stroke-miterlimit:4;stroke-dasharray:none;stroke-opacity:1"
       d="m 58.967482,103.47976 c 0.789032,0.70827 28.962262,0.85395 36.043873,-8.462028 -8.994329,-0.18736 -33.688779,-0.181188 -35.918804,0.07784 0.08953,1.890143 -0.764623,7.810088 -0.125069,8.384188 z"
       id="path857"
       sodipodi:nodetypes="sccs" />
    <path
       style="fill:none;stroke:#000000;stroke-width:1.05833;stroke-linecap:butt;stroke-linejoin:miter;stroke-miterlimit:4;stroke-dasharray:none;stroke-opacity:1"
       d="m 33.805587,100.89265 c 12.098383,-4.323974 19.042941,-2.664265 24.939265,0.30573"
       id="path5370" />
    <path
       style="opacity:1;fill:#e7e7e7;fill-opacity:1;stroke:#e7e7e7;stroke-width:0.0264583;stroke-linecap:round;stroke-linejoin:round;stroke-miterlimit:4;stroke-dasharray:none;stroke-opacity:1;paint-order:markers fill stroke"
       d="m 61.281474,103.17379 c -0.611503,-0.0233 -1.295779,-0.0632 -1.520616,-0.0887 l -0.408795,-0.0464 -0.03902,-0.37335 c -0.02146,-0.20534 -0.03902,-0.61942 -0.03902,-0.92019 v -0.54685 l 0.416933,-3e-5 c 1.640824,-10e-5 7.260934,-0.28934 10.207138,-0.52531 10.236769,-0.819878 17.352603,-2.53736 19.768153,-4.771253 l 0.417441,-0.386051 1.596771,0.0036 c 0.878221,0.0019 1.706822,0.0231 1.841333,0.04697 l 0.244565,0.0434 -0.506399,0.446233 c -0.659601,0.581231 -1.314741,1.063064 -2.094785,1.540642 -5.193581,3.179729 -14.718168,5.228689 -25.930553,5.578259 -2.050489,0.0639 -2.247763,0.0639 -3.953142,-0.001 z"
       id="path5678" />
    <path
       style="opacity:0.472868;fill:#000000;fill-opacity:1;stroke:#000000;stroke-width:0.161925;stroke-linecap:round;stroke-linejoin:round;stroke-miterlimit:4;stroke-dasharray:none;stroke-opacity:1;paint-order:markers fill stroke"
       d="m 35.284888,100.96693 c 0.02717,-0.0293 1.285979,-0.42205 2.110084,-0.65835 4.882433,-1.399962 9.195435,-1.817443 13.045538,-1.262754 1.442059,0.207758 2.660401,0.497149 4.085066,0.970314 0.670168,0.22257 1.649021,0.58639 1.629683,0.60571 -0.0046,0.005 -0.175051,-0.011 -0.378884,-0.0345 -1.071541,-0.12372 -3.019906,-0.27367 -4.617148,-0.35536 -1.039831,-0.0532 -4.674516,-0.0727 -5.929715,-0.0319 -2.918783,0.0949 -5.758286,0.30688 -8.925454,0.66618 -0.365202,0.0414 -0.747392,0.0848 -0.84931,0.0963 -0.101915,0.0116 -0.178353,0.0135 -0.16986,0.004 z"
       id="path9459" />
  </g>
</svg>
