<?xml version="1.0" encoding="UTF-8" standalone="no"?>
<!-- Created with Inkscape (http://www.inkscape.org/) -->

<svg
   width="512"
   height="512"
   viewBox="0 0 512 512"
   version="1.1"
   id="svg5"
   inkscape:export-filename="lazer.png"
   inkscape:export-xdpi="352.98154"
   inkscape:export-ydpi="352.98154"
   inkscape:version="1.2.1 (9c6d41e410, 2022-07-14)"
   sodipodi:docname="lazer.svg"
   xmlns:inkscape="http://www.inkscape.org/namespaces/inkscape"
   xmlns:sodipodi="http://sodipodi.sourceforge.net/DTD/sodipodi-0.dtd"
   xmlns="http://www.w3.org/2000/svg"
   xmlns:svg="http://www.w3.org/2000/svg">
  <sodipodi:namedview
     id="namedview7"
     pagecolor="#505050"
     bordercolor="#ffffff"
     borderopacity="1"
     inkscape:showpageshadow="0"
     inkscape:pageopacity="0"
     inkscape:pagecheckerboard="1"
     inkscape:deskcolor="#505050"
     inkscape:document-units="px"
     showgrid="false"
     inkscape:zoom="1.5233586"
     inkscape:cx="259.29548"
     inkscape:cy="293.43058"
     inkscape:window-width="1920"
     inkscape:window-height="1009"
     inkscape:window-x="-8"
     inkscape:window-y="-8"
     inkscape:window-maximized="1"
     inkscape:current-layer="layer1" />
  <defs
     id="defs2" />
  <g
     inkscape:label="Слой 1"
     inkscape:groupmode="layer"
     id="layer1">
    <rect
       style="opacity:1;fill:#ff6f00;fill-opacity:1;stroke:#000000;stroke-width:4;stroke-linecap:round;stroke-linejoin:round;stroke-dasharray:none;paint-order:fill markers stroke"
       id="rect234"
       width="65.827919"
       height="226.4677"
       x="194.70647"
       y="137.2299" />
    <rect
       style="fill:#fff900;fill-opacity:1;stroke:none;stroke-width:3.13427;stroke-linecap:round;stroke-linejoin:round;stroke-dasharray:none;paint-order:fill markers stroke"
       id="rect234-7"
       width="40.190315"
       height="227.74431"
       x="207.36279"
       y="137.54601" />
    <rect
       style="fill:#ffffff;fill-opacity:1;stroke:none;stroke-width:2.27387;stroke-linecap:round;stroke-linejoin:round;stroke-dasharray:none;paint-order:fill markers stroke"
       id="rect234-7-7"
       width="21.153431"
       height="227.74431"
       x="217.53767"
       y="135.57668" />
    <path
       style="fill:#ff6f00;fill-opacity:1;stroke:#000000;stroke-width:4;stroke-linecap:butt;stroke-linejoin:miter;stroke-dasharray:none;stroke-opacity:1"
       d="m 261.65458,374.12117 c 18.10287,-7.42681 32.92752,-34.31605 32.46335,-40.35034 -0.46418,-6.03429 -12.36298,19.46725 -18.39727,14.82549 -6.03429,-4.64176 0.92835,-21.81628 -3.71341,-24.13716 -4.64177,-2.32089 -19.03123,25.06551 -29.70728,25.06551 -10.67605,0 -10.21188,-21.3521 -19.95958,-22.74463 -9.7477,-1.39253 -0.46417,21.3521 -9.28352,21.81628 -8.81935,0.46417 -18.77781,-19.4769 -30.38221,-17.6202 -11.60441,1.85671 11.34615,26.35507 3.45516,26.35507 -7.891,0 -23.81758,-24.40325 -25.52969,-23.21847 -7.62228,5.27464 15.97439,46.03622 40.00929,39.90066 15.76702,-4.02497 61.04516,0.10779 61.04516,0.10779 z"
       id="path1005"
       sodipodi:nodetypes="cssssssssssc" />
    <path
       style="opacity:1;fill:#fff900;fill-opacity:1;stroke:none;stroke-width:0.656444;stroke-linecap:round;stroke-linejoin:round;stroke-dasharray:none;paint-order:fill markers stroke"
       d="m 198.56752,371.11021 c -3.61697,-2.20838 -6.10745,-4.52653 -7.17488,-6.67844 -0.51026,-1.02867 -0.59851,-1.36921 -0.59542,-2.29755 0.006,-1.93336 0.99427,-3.5191 3.03904,-4.87846 1.61922,-1.07646 3.48622,-1.70414 5.07723,-1.70695 1.69839,-0.003 2.63523,0.19301 6.63226,1.38761 4.45796,1.33238 6.14832,1.63682 8.43103,1.5185 1.97787,-0.10252 2.29243,-0.19793 6.29626,-1.90971 5.25661,-2.24739 7.87713,-2.89694 11.12356,-2.7572 2.45035,0.10547 3.26883,0.34819 6.72608,1.99459 5.86855,2.79471 9.96892,4.31114 12.91933,4.77794 1.45149,0.22965 1.83507,0.23582 2.87194,0.0462 0.65818,-0.12037 2.19367,-0.21731 3.4122,-0.21544 2.75068,0.004 4.04344,0.36927 5.18647,1.46449 0.87142,0.83496 0.93545,1.40264 0.30168,2.67445 -0.79276,1.59086 -4.75112,4.91186 -8.11393,6.80746 l -0.7385,0.41629 -4.431,-0.2986 c -9.1171,-0.61441 -15.02728,-0.84243 -24.04227,-0.92755 -11.81599,-0.11157 -17.86295,0.17469 -23.3302,1.10444 -1.05253,0.17899 -1.97874,0.32544 -2.05824,0.32544 -0.0795,0 -0.76919,-0.38138 -1.53264,-0.84751 z"
       id="path1381" />
    <path
       style="fill:#ffffff;fill-opacity:1;stroke:none;stroke-width:0.353538;stroke-linecap:round;stroke-linejoin:round;stroke-dasharray:none;paint-order:fill markers stroke"
       d="m 238.98244,370.51346 c 1.56431,-1.48106 2.64142,-3.03574 3.10308,-4.47892 0.22068,-0.68989 0.25885,-0.91827 0.25751,-1.54087 -0.003,-1.29661 -0.43001,-2.3601 -1.31436,-3.27176 -0.7003,-0.72193 -1.50776,-1.14289 -2.19586,-1.14477 -0.73453,-0.002 -1.13971,0.12944 -2.86839,0.93061 -1.92803,0.89356 -2.6591,1.09774 -3.64635,1.01839 -0.85541,-0.0688 -0.99146,-0.13275 -2.72308,-1.28076 -2.27344,-1.50722 -3.40679,-1.94285 -4.81084,-1.84913 -1.05976,0.0707 -1.41374,0.23352 -2.90897,1.33768 -2.5381,1.87429 -4.31148,2.89129 -5.5875,3.20435 -0.62776,0.15401 -0.79365,0.15815 -1.24209,0.031 -0.28466,-0.0807 -0.94875,-0.14574 -1.47575,-0.14448 -1.18964,0.003 -1.74875,0.24765 -2.2431,0.98216 -0.37688,0.55997 -0.40458,0.94069 -0.13048,1.79363 0.34287,1.06692 0.7784,2.53907 2.3194,3.70388 l 1.46817,0.97665 4.25495,-0.20025 c 3.96016,-0.18638 4.24265,0.009 8.14156,-0.0477 5.11031,-0.0748 7.27426,0.15819 10.04908,0.33042 0.46987,0.0292 0.85579,0.21826 0.89017,0.21826 0.0344,0 0.33267,-0.25578 0.66285,-0.56839 z"
       id="path1381-7"
       sodipodi:nodetypes="sscssssssssscssscssssss" />
    <path
       style="fill:none;fill-opacity:1;stroke:#000000;stroke-width:4;stroke-linecap:butt;stroke-linejoin:miter;stroke-dasharray:none;stroke-opacity:1"
       d="m 261.39801,373.83232 c 18.10287,-7.42681 32.92752,-34.31605 32.46335,-40.35034 -0.46418,-6.03429 -12.36298,19.46725 -18.39727,14.82549 -6.03429,-4.64176 0.92835,-21.81628 -3.71341,-24.13716 -4.64177,-2.32089 -19.03123,25.06551 -29.70728,25.06551 -10.67605,0 -10.21188,-21.3521 -19.95958,-22.74463 -9.7477,-1.39253 -0.46417,21.3521 -9.28352,21.81628 -8.81935,0.46417 -18.77781,-19.4769 -30.38221,-17.6202 -11.60441,1.85671 11.34615,26.35507 3.45516,26.35507 -7.891,0 -23.81758,-24.40325 -25.52969,-23.21847 -7.62228,5.27464 15.97439,46.03622 40.00929,39.90066 15.76702,-4.02497 61.04516,0.10779 61.04516,0.10779 z"
       id="path1005-4"
       sodipodi:nodetypes="cssssssssssc" />
  </g>
</svg>
