<?xml version="1.0" encoding="UTF-8" standalone="no"?>
<!-- Created with Inkscape (http://www.inkscape.org/) -->

<svg
   width="512"
   height="512"
   viewBox="0 0 512 512"
   version="1.1"
   id="svg5"
   xml:space="preserve"
   inkscape:version="1.2.1 (9c6d41e410, 2022-07-14)"
   sodipodi:docname="robot9.svg"
   xmlns:inkscape="http://www.inkscape.org/namespaces/inkscape"
   xmlns:sodipodi="http://sodipodi.sourceforge.net/DTD/sodipodi-0.dtd"
   xmlns="http://www.w3.org/2000/svg"
   xmlns:svg="http://www.w3.org/2000/svg"><sodipodi:namedview
     id="namedview7"
     pagecolor="#ffffff"
     bordercolor="#000000"
     borderopacity="0.25"
     inkscape:showpageshadow="2"
     inkscape:pageopacity="0.0"
     inkscape:pagecheckerboard="0"
     inkscape:deskcolor="#d1d1d1"
     inkscape:document-units="px"
     showgrid="false"
     inkscape:zoom="1.0544998"
     inkscape:cx="135.13516"
     inkscape:cy="349.92895"
     inkscape:window-width="1920"
     inkscape:window-height="1017"
     inkscape:window-x="-8"
     inkscape:window-y="-8"
     inkscape:window-maximized="1"
     inkscape:current-layer="layer2" /><defs
     id="defs2" /><g
     inkscape:label="Слой 1"
     inkscape:groupmode="layer"
     id="layer1"
     transform="translate(-103.36655,102.41823)" /><g
     inkscape:groupmode="layer"
     id="layer2"
     inkscape:label="Слой 2"><rect
       style="opacity:1;fill:none;stroke:#000000;stroke-width:4;stroke-linecap:round;stroke-linejoin:round;stroke-dasharray:none"
       id="rect909"
       width="92.935059"
       height="28.449509"
       x="16.121387"
       y="303.46143" /><rect
       style="opacity:1;fill:none;stroke:#000000;stroke-width:4;stroke-linecap:round;stroke-linejoin:round;stroke-dasharray:none"
       id="rect911"
       width="92.935059"
       height="28.449509"
       x="16.121387"
       y="303.46143" /><rect
       style="opacity:1;fill:none;stroke:#000000;stroke-width:4;stroke-linecap:round;stroke-linejoin:round;stroke-dasharray:none"
       id="rect913"
       width="92.935059"
       height="28.449509"
       x="164.05884"
       y="303.46143" /><path
       style="opacity:1;fill:none;stroke:#000000;stroke-width:4;stroke-linecap:round;stroke-linejoin:round;stroke-dasharray:none"
       d="m 111.42724,326.22103 52.15743,-0.94832"
       id="path969" /><path
       style="opacity:1;fill:none;stroke:#000000;stroke-width:4;stroke-linecap:round;stroke-linejoin:round;stroke-dasharray:none"
       d="m 198.31329,332.02598 c 17.92681,15.36454 9.31553,22.74973 4.15238,29.28278 -2.71056,3.42973 -130.393582,3.3191 -130.393582,3.3191 0,0 -12.802279,-4.26742 -4.267427,-14.69891 8.534853,-10.43148 16.504324,-17.62522 16.504324,-17.62522"
       id="path1051"
       sodipodi:nodetypes="cscsc" /><path
       style="opacity:1;fill:none;stroke:#000000;stroke-width:4;stroke-linecap:round;stroke-linejoin:round;stroke-dasharray:none"
       d="m 198.19824,362.73123 -9.48317,15.64723 h -86.771 l -0.27776,-13.05127"
       id="path1053"
       sodipodi:nodetypes="cccc" /><path
       style="opacity:1;fill:none;stroke:#000000;stroke-width:4;stroke-linecap:round;stroke-linejoin:round;stroke-dasharray:none"
       d="M 100.04744,375.05935 C 70.175454,392.60321 70.175454,365.57618 70.175454,365.57618"
       id="path1055" /><path
       style="opacity:1;fill:none;stroke:#000000;stroke-width:4;stroke-linecap:round;stroke-linejoin:round;stroke-dasharray:none"
       d="M 101.02452,366.61078 C 80.233027,385.76859 75.333672,365.10202 75.333672,365.10202"
       id="path1057"
       sodipodi:nodetypes="cc" /><path
       style="opacity:1;fill:none;stroke:#000000;stroke-width:4;stroke-linecap:round;stroke-linejoin:round;stroke-dasharray:none"
       d="m 280.70182,276.67147 v 17.54386 l -8.0607,-0.23708 v -16.83262"
       id="path1110"
       sodipodi:nodetypes="cccc"
       transform="translate(-103.36655,102.41823)" /><path
       style="opacity:1;fill:none;stroke:#000000;stroke-width:4;stroke-linecap:round;stroke-linejoin:round;stroke-dasharray:none"
       d="m 272.64113,293.50409 -0.11855,7.82362 -57.25463,0 -0.23708,-25.1304"
       id="path1112"
       sodipodi:nodetypes="cccc"
       transform="translate(-103.36655,102.41823)" /><path
       style="opacity:1;fill:none;stroke:#000000;stroke-width:4;stroke-linecap:round;stroke-linejoin:round;stroke-dasharray:none"
       d="m 220.04422,302.0979 6.53798,8.04674 h 33.86334 l 5.86742,-7.8791"
       id="path1114"
       transform="translate(-103.36655,102.41823)" /><rect
       style="opacity:1;fill:none;stroke:#000000;stroke-width:4;stroke-linecap:round;stroke-linejoin:round;stroke-dasharray:none"
       id="rect1183"
       width="64.373886"
       height="10.728981"
       x="231.66498"
       y="422.65823" /><path
       style="opacity:1;fill:none;stroke:#000000;stroke-width:4;stroke-linecap:round;stroke-linejoin:round;stroke-dasharray:none"
       d="m 296.37415,427.68744 22.4638,0.16764"
       id="path1185"
       sodipodi:nodetypes="cc" /><path
       style="opacity:1;fill:none;stroke:#000000;stroke-width:4;stroke-linecap:round;stroke-linejoin:round;stroke-dasharray:none"
       d="m 204.52121,340.30988 -33.19279,-0.33528 c 0,0 8.38202,11.06426 8.38202,16.42875 0,5.36449 0,5.36449 0,5.36449"
       id="path1189" /><path
       style="opacity:1;fill:#ff0000;stroke:#ff0000;stroke-width:1;stroke-linecap:round;stroke-linejoin:round;stroke-dasharray:none;fill-opacity:1;stroke-opacity:1"
       d="m 181.72123,358.04111 c 0,-2.07862 -0.12498,-3.63372 -0.36692,-4.56543 -0.48959,-1.88536 -2.27541,-5.57579 -4.21154,-8.7032 l -1.5778,-2.5486 8.47168,4.8e-4 c 4.65943,2.7e-4 11.27175,0.0707 14.69404,0.15657 l 6.22234,0.15607 0.44245,0.74989 c 0.63843,1.08207 1.36987,3.15475 1.54913,4.38981 0.42283,2.91316 -1.47435,6.93978 -5.22413,11.08785 l -0.91437,1.01149 -3.08203,0.34178 c -1.69511,0.18798 -5.26908,0.45325 -7.94215,0.58948 -2.67307,0.13624 -5.58025,0.30137 -6.46041,0.36696 l -1.60029,0.11927 z"
       id="path1260" /><path
       style="opacity:1;fill:#cccccc;fill-opacity:1;stroke:#cccccc;stroke-width:2;stroke-linecap:round;stroke-linejoin:round;stroke-dasharray:none;stroke-opacity:1"
       d="m 71.414783,361.88439 c -3.034532,-1.56638 -4.801646,-4.19007 -4.210465,-6.2514 0.802356,-2.79765 4.877988,-7.8427 13.392232,-16.57765 l 4.823119,-4.94815 h 12.117773 c 14.359698,0 13.608098,0.18387 13.608098,-3.32916 v -2.2853 l 7.62764,-0.20764 c 4.1952,-0.1142 12.9083,-0.28561 19.36246,-0.38091 6.45415,-0.0953 14.41287,-0.2625 17.68605,-0.37157 l 5.95123,-0.19829 v 2.50302 c 0,2.02455 0.13284,2.67188 0.6949,3.38643 l 0.6949,0.88342 h 17.16929 17.1693 l 2.00118,2.04324 2.00119,2.04324 -15.4668,-0.23912 c -15.46445,-0.23909 -15.46692,-0.23902 -16.17729,0.47136 -1.05693,1.05693 -0.8768,2.02183 0.82458,4.41692 2.40671,3.38801 5.10622,8.11295 6.01572,10.52928 0.6415,1.7043 0.83123,2.84578 0.83123,5.00108 v 2.79274 l -5.28068,0.2167 c -7.79534,0.31989 -45.27586,0.83957 -74.180844,1.02854 -25.084934,0.164 -25.32581,0.15924 -26.654813,-0.52678 z"
       id="path1745" /><path
       style="opacity:1;fill:#cccccc;fill-opacity:1;stroke:#cccccc;stroke-width:0.474158;stroke-linecap:round;stroke-linejoin:round;stroke-dasharray:none;stroke-opacity:1"
       d="M 166.074,317.68618 V 305.4766 h 44.45236 44.45236 v 12.20958 12.20958 H 210.52636 166.074 Z"
       id="path11131" /><path
       style="opacity:1;fill:#cccccc;fill-opacity:1;stroke:#cccccc;stroke-width:0.474158;stroke-linecap:round;stroke-linejoin:round;stroke-dasharray:none;stroke-opacity:1"
       d="M 18.136562,317.68618 V 305.4766 h 44.452356 44.452362 v 12.20958 12.20958 H 62.588918 18.136562 Z"
       id="path11133" /><path
       style="opacity:1;fill:#cccccc;fill-opacity:1;stroke:#cccccc;stroke-width:0.474158;stroke-linecap:round;stroke-linejoin:round;stroke-dasharray:none;stroke-opacity:1"
       d="m 103.91229,371.56309 c -0.0531,-2.64083 -0.0909,-4.81534 -0.084,-4.83225 0.007,-0.0169 10.94772,-0.15306 24.31306,-0.30256 31.42675,-0.35154 49.36962,-0.77878 61.48489,-1.46403 2.45703,-0.13897 4.52304,-0.19696 4.59114,-0.12887 0.0681,0.0681 -1.41722,2.66306 -3.30069,5.76659 l -3.4245,5.64278 -41.74171,0.0599 -41.74172,0.0599 z"
       id="path11135" /><path
       style="opacity:1;fill:#cccccc;fill-opacity:1;stroke:#cccccc;stroke-width:0.474158;stroke-linecap:round;stroke-linejoin:round;stroke-dasharray:none;stroke-opacity:1"
       d="m 113.91657,391.0622 v -10.66857 h 26.67142 26.67141 v 7.07469 c 0,3.89107 -0.07,8.69193 -0.15555,10.66856 l -0.15556,3.59389 h -26.51586 -26.51586 z"
       id="path11137" /><path
       style="opacity:1;fill:#cccccc;fill-opacity:1;stroke:#cccccc;stroke-width:0.474158;stroke-linecap:round;stroke-linejoin:round;stroke-dasharray:none;stroke-opacity:1"
       d="m 171.28975,387.38747 v -6.99384 h 2.01517 2.01518 v 6.99384 6.99384 h -2.01518 -2.01517 z"
       id="path11139" /><path
       style="opacity:1;fill:#cccccc;fill-opacity:1;stroke:#cccccc;stroke-width:0.474158;stroke-linecap:round;stroke-linejoin:round;stroke-dasharray:none;stroke-opacity:1"
       d="m 122.39784,408.17709 -1.83167,-2.29744 9.71456,-0.0619 c 5.34301,-0.034 14.08084,-0.034 19.4174,0 l 9.70284,0.0619 -1.70141,2.30264 -1.70142,2.30264 -15.88431,-0.005 -15.88431,-0.005 z"
       id="path11141" /><ellipse
       style="opacity:1;fill:none;stroke:#000000;stroke-width:4;stroke-linecap:round;stroke-linejoin:round;stroke-dasharray:none"
       id="path1173"
       cx="309.50696"
       cy="311.75919"
       rx="10.550026"
       ry="9.4831696" /><path
       style="opacity:1;fill:#cccccc;fill-opacity:1;stroke:#cccccc;stroke-width:0.474158;stroke-linecap:round;stroke-linejoin:round;stroke-dasharray:none;stroke-opacity:1"
       d="m 81.318178,378.70465 c -4.189621,-0.59904 -7.159686,-3.78928 -8.419348,-9.04349 -0.621402,-2.59195 -0.612529,-3.0205 0.0623,-3.00916 0.437438,0.007 0.733443,0.42331 1.644928,2.31152 2.69483,5.58256 6.67409,8.1641 12.024696,7.80103 3.776126,-0.25624 7.60868,-1.98999 12.290552,-5.55993 l 0.770508,-0.58751 v 1.21353 c 0,0.66745 -0.100029,1.21354 -0.222288,1.21354 -0.122259,0 -1.341375,0.62232 -2.709147,1.38295 -5.780148,3.21435 -11.601013,4.82674 -15.442206,4.27752 z"
       id="path11143" /><path
       style="opacity:0.5;fill:#000000;fill-opacity:1;stroke:#000000;stroke-width:2;stroke-linecap:round;stroke-linejoin:round;stroke-dasharray:none;stroke-opacity:1"
       d="m 166.39206,339.02818 c -4.78767,-0.86877 -8.43499,-2.97199 -10.10926,-5.82947 -1.05944,-1.80817 -1.72599,-5.42876 -1.16261,-6.31516 0.12623,-0.19861 1.22364,-0.29628 3.59756,-0.3202 4.18497,-0.0422 4.03715,-0.15957 4.03715,3.20643 0,1.78058 0.0943,2.52583 0.36906,2.91818 l 0.36906,0.52691 h 17.11998 17.11998 l 2.30707,2.31576 c 2.31729,2.32602 2.66014,2.9316 1.89219,3.34222 -0.25794,0.13791 -6.07866,0.13007 -15.38666,-0.0208 -13.64136,-0.22102 -15.0403,-0.20839 -15.74293,0.14212 -0.90273,0.45035 -2.06652,0.45931 -4.41059,0.034 z"
       id="path11363" /><path
       style="opacity:0.5;fill:#000000;fill-opacity:1;stroke:#000000;stroke-width:0.335281;stroke-linecap:round;stroke-linejoin:round;stroke-dasharray:none;stroke-opacity:1"
       d="m 67.4747,359.73747 c -1.768697,-2.2327 -1.875488,-3.9816 -0.404902,-6.63097 1.68765,-3.04043 6.319202,-8.39676 14.204212,-16.42699 l 3.656534,-3.72388 12.017837,-0.0529 c 6.609809,-0.0291 12.623779,-0.54912 12.647249,-0.54102 0.17134,0.0592 -1.68018,3.23599 -2.44324,3.96917 -2.90306,2.78938 -7.22624,3.50089 -15.620766,3.98327 -3.776059,0.21699 -5.421253,0.47471 -6.481415,1.01533 -0.844488,0.43063 -3.334284,2.88664 -5.871536,5.79184 -3.4288,3.92604 -10.392512,12.42673 -10.815743,13.2029 -0.155774,0.28568 -0.242498,0.22839 -0.88823,-0.58674 z"
       id="path12576"
       sodipodi:nodetypes="ssscsssssssss" /><path
       style="opacity:0.5;fill:#000000;fill-opacity:1;stroke:#000000;stroke-width:0.335281;stroke-linecap:round;stroke-linejoin:round;stroke-dasharray:none;stroke-opacity:1"
       d="m 81.054102,378.83524 c -0.991355,-0.16576 -2.565675,-0.78907 -3.471147,-1.3743 -2.406285,-1.55526 -4.085845,-4.4163 -4.999945,-8.51715 -0.366561,-1.64447 -0.293052,-2.29915 0.265463,-2.36422 0.555384,-0.0647 0.767239,0.19227 1.837742,2.22917 1.293243,2.46071 1.937047,3.38505 3.275275,4.7025 1.236657,1.21744 2.69095,2.1014 4.433735,2.69494 0.74793,0.25472 1.396817,0.31183 3.436627,0.30242 2.241988,-0.0103 2.678175,-0.0614 4.023368,-0.47069 2.652142,-0.80703 5.642961,-2.44714 8.801117,-4.82639 l 1.089663,-0.82091 0.05132,0.9623 c 0.08688,1.62915 0.148112,1.56294 -2.944006,3.18338 -4.541293,2.37989 -7.917185,3.63794 -11.184101,4.16782 -1.411704,0.22897 -3.649686,0.29256 -4.615109,0.13113 z"
       id="path12785" /><path
       style="opacity:0.5;fill:#cccccc;fill-opacity:1;stroke:#cccccc;stroke-width:0.474158;stroke-linecap:round;stroke-linejoin:round;stroke-dasharray:none;stroke-opacity:1"
       d="m 233.87866,428.04657 v -3.31911 h 29.99052 29.99053 v 3.31911 3.31911 h -29.99053 -29.99052 z"
       id="path13361" /><path
       style="opacity:0.5;fill:#010101;fill-opacity:1;stroke:#000000;stroke-width:0.335281;stroke-linecap:round;stroke-linejoin:round;stroke-dasharray:none;stroke-opacity:1"
       d="m 18.021336,317.67844 v -12.32157 h 1.823089 1.823088 l 0.103012,0.51506 c 0.284596,1.42298 2.158647,4.4025 4.075756,6.47998 2.834312,3.0714 8.443264,6.77169 14.33382,9.45618 1.228096,0.55968 6.042531,2.56492 10.698741,4.45608 4.65621,1.89117 12.556261,4.50645 12.740665,4.58237 0.184405,0.0759 -13.052895,-0.86301 -24.601219,-0.85717 L 18.021336,330 Z"
       id="path13527"
       sodipodi:nodetypes="ccccsssssscc" /><path
       style="opacity:0.5;fill:#010101;fill-opacity:1;stroke:#000000;stroke-width:0.335281;stroke-linecap:round;stroke-linejoin:round;stroke-dasharray:none;stroke-opacity:1"
       d="m 165.88012,317.67844 v -12.32157 h 1.82309 1.82308 l 0.10302,0.51506 c 0.28459,1.42298 2.15864,4.4025 4.07575,6.47998 2.83431,3.0714 8.44327,6.77169 14.33382,9.45618 1.2281,0.55968 6.04253,2.56492 10.69874,4.45608 4.65621,1.89117 12.55626,4.50645 12.74067,4.58237 0.1844,0.0759 -13.0529,-0.86301 -24.60122,-0.85717 l -20.99695,0.0106 z"
       id="path13874"
       sodipodi:nodetypes="ccccsssssscc" /><path
       style="opacity:0.5;fill:#000000;fill-opacity:1;stroke:#000000;stroke-width:2;stroke-linecap:round;stroke-linejoin:round;stroke-dasharray:none;stroke-opacity:1"
       d="m 103.76937,371.5652 v -4.76815 l 2.9337,-0.0158 c 1.61354,-0.009 9.19508,-0.12655 16.84786,-0.26192 7.65278,-0.13537 18.44043,-0.316 23.97257,-0.4014 12.93988,-0.19976 22.47848,-0.43658 32.52222,-0.80745 4.42571,-0.16342 8.27305,-0.28991 8.54966,-0.28109 0.2766,0.009 1.66248,-0.097 3.07972,-0.23518 2.4125,-0.2352 2.56615,-0.21142 2.40957,0.37289 -0.41238,1.53884 -1.01071,1.86255 -4.04438,2.18815 -7.57002,0.81246 -15.11518,3.03199 -22.30352,6.56093 l -4.45508,2.18711 -29.75616,0.11502 -29.75616,0.11503 z"
       id="path13995" /><path
       style="opacity:0.5;fill:#000000;fill-opacity:1;stroke:#000000;stroke-width:2;stroke-linecap:round;stroke-linejoin:round;stroke-dasharray:none;stroke-opacity:1"
       d="m 113.82774,391.18872 -6e-5,-10.64516 21.1848,0.0888 c 11.65165,0.0489 25.23473,-1.71728 25.06229,-1.56844 -0.17244,0.14883 -6.08874,3.4865 -8.02499,5.06076 -4.24611,3.4523 -11.03449,10.41131 -14.24942,14.6076 l -2.34697,3.06337 -10.8128,0.0191 -10.8128,0.0191 z"
       id="path13997"
       sodipodi:nodetypes="cccssscccc" /><ellipse
       style="opacity:1;fill:none;stroke:#000000;stroke-width:4;stroke-linecap:round;stroke-linejoin:round;stroke-dasharray:none"
       id="ellipse1175"
       cx="309.50696"
       cy="367.75919"
       rx="10.550026"
       ry="9.4831696" /><path
       style="opacity:0.5;fill:#010101;fill-opacity:1;stroke:#000000;stroke-width:2;stroke-linecap:round;stroke-linejoin:round;stroke-dasharray:none;stroke-opacity:1"
       d="m 122.84764,408.79096 c -0.78996,-0.96812 -1.63574,-2.00054 -1.87952,-2.29425 -0.40226,-0.48466 0.10371,-0.54085 5.47236,-0.60774 6.67666,-0.0832 9.26983,-3.70387 7.10729,-0.75966 l -3.9824,5.42187 h -2.64072 -2.64072 z"
       id="path13999"
       sodipodi:nodetypes="sssscccs" /><path
       style="opacity:1;fill:none;stroke:#000000;stroke-width:4;stroke-linecap:round;stroke-linejoin:round;stroke-dasharray:none"
       d="m 299.19399,310.5738 -0.20832,54.0898"
       id="path1179"
       sodipodi:nodetypes="cc" /><path
       style="opacity:1;fill:none;stroke:#000000;stroke-width:4;stroke-linecap:round;stroke-linejoin:round;stroke-dasharray:none"
       d="m 320.1264,314.17559 0.13884,52.02554"
       id="path1181"
       sodipodi:nodetypes="cc" /><path
       style="opacity:0.5;fill:#cccccc;fill-opacity:1;stroke:#cccccc;stroke-width:0.948317;stroke-linecap:round;stroke-linejoin:round;stroke-dasharray:none;stroke-opacity:1"
       d="m 301.32771,339.79105 v -18.87784 l 2.46165,1.21826 c 3.47044,1.7175 8.20179,1.7175 11.67223,0 l 2.46166,-1.21826 v 18.88622 18.88623 l -1.78927,-0.93262 c -4.04963,-2.11079 -9.66759,-2.11604 -13.23305,-0.0124 l -1.57322,0.92823 z"
       id="path12795" /><path
       style="opacity:0.5;fill:#cccccc;fill-opacity:1;stroke:#cccccc;stroke-width:0.474158;stroke-linecap:round;stroke-linejoin:round;stroke-dasharray:none;stroke-opacity:1"
       d="m 308.03242,318.98282 c -1.55173,-0.2613 -3.49859,-1.19721 -4.64516,-2.23307 -2.95038,-2.66549 -2.95038,-7.31563 0,-9.98112 1.92519,-1.73928 4.93701,-2.64506 7.44039,-2.23762 6.31225,1.02734 9.16954,7.30924 5.31921,11.69452 -1.8288,2.0829 -5.23862,3.24155 -8.11444,2.75729 z"
       id="path13357" /><path
       style="opacity:0.5;fill:#cccccc;fill-opacity:1;stroke:#cccccc;stroke-width:0.474158;stroke-linecap:round;stroke-linejoin:round;stroke-dasharray:none;stroke-opacity:1"
       d="m 307.67425,374.94131 c -1.59658,-0.33631 -3.02688,-1.06636 -4.19036,-2.13881 -3.83211,-3.53232 -2.81725,-9.09285 2.09849,-11.4979 1.76045,-0.8613 4.58811,-1.0799 6.55874,-0.50702 4.5653,1.32717 6.95649,5.92446 5.07826,9.76342 -0.78587,1.60628 -2.60641,3.26107 -4.2742,3.88507 -1.519,0.56833 -3.87369,0.78957 -5.27093,0.49524 z"
       id="path13359" /><path
       style="opacity:0.5;fill:#000000;fill-opacity:1;stroke:#000000;stroke-width:2;stroke-linecap:round;stroke-linejoin:round;stroke-dasharray:none;stroke-opacity:1"
       d="m 177.15392,384.65075 c -5.07112,0.75438 -7.37617,7.25044 -7.37617,7.25044 l -0.46101,-13.36931 h 8.46584 z"
       id="path14001" /><path
       style="opacity:0.5;fill:#000000;fill-opacity:1;stroke:#000000;stroke-width:0.474158;stroke-linecap:round;stroke-linejoin:round;stroke-dasharray:none;stroke-opacity:1"
       d="m 307.90102,318.96344 c -1.53639,-0.25575 -3.32404,-1.13885 -4.55309,-2.24922 -2.89215,-2.61288 -2.89215,-7.29717 0,-9.91005 4.29849,-3.88343 11.4825,-2.77893 13.88666,2.13499 2.59379,5.30151 -2.81406,11.10956 -9.33357,10.02428 z"
       id="path14003" /><path
       style="opacity:0.5;fill:#000000;fill-opacity:1;stroke:#000000;stroke-width:2;stroke-linecap:round;stroke-linejoin:round;stroke-dasharray:none;stroke-opacity:1"
       d="m 310.81087,321.71652 v 36.98436 l -5.6899,0.94832 -5.6899,4.5045 -0.47416,-52.15743 4.26743,7.34946 z"
       id="path14005" /><path
       style="opacity:0.5;fill:#000000;fill-opacity:1;stroke:#000000;stroke-width:2;stroke-linecap:round;stroke-linejoin:round;stroke-dasharray:none;stroke-opacity:1"
       d="m 231.62641,428.87635 c 0.94831,0 64.48555,0 64.48555,0 v 4.97866 l -63.30016,0.47416 z"
       id="path14007" /><path
       style="opacity:0.5;fill:#000000;fill-opacity:1;stroke:#000000;stroke-width:2;stroke-linecap:round;stroke-linejoin:round;stroke-dasharray:none;stroke-opacity:1"
       d="m 318.16033,363.20539 c -18.01802,-0.47416 -13.98767,12.09104 -13.98767,12.09104 l -5.92698,-5.6899 4.26742,-9.48317 7.82362,-1.89664 z"
       id="path14011" /></g></svg>
