<?xml version="1.0" encoding="UTF-8" standalone="no"?>
<!-- Created with Inkscape (http://www.inkscape.org/) -->

<svg
   width="512"
   height="512"
   viewBox="0 0 512 512"
   version="1.1"
   id="svg5"
   xml:space="preserve"
   sodipodi:docname="robot8.svg"
   inkscape:version="1.2.1 (9c6d41e410, 2022-07-14)"
   xmlns:inkscape="http://www.inkscape.org/namespaces/inkscape"
   xmlns:sodipodi="http://sodipodi.sourceforge.net/DTD/sodipodi-0.dtd"
   xmlns="http://www.w3.org/2000/svg"
   xmlns:svg="http://www.w3.org/2000/svg"><sodipodi:namedview
     id="namedview7"
     pagecolor="#ffffff"
     bordercolor="#000000"
     borderopacity="0.25"
     inkscape:showpageshadow="2"
     inkscape:pageopacity="0.0"
     inkscape:pagecheckerboard="0"
     inkscape:deskcolor="#d1d1d1"
     inkscape:document-units="px"
     showgrid="false"
     inkscape:zoom="4.6238154"
     inkscape:cx="201.02446"
     inkscape:cy="358.57833"
     inkscape:window-width="1920"
     inkscape:window-height="1017"
     inkscape:window-x="-8"
     inkscape:window-y="-8"
     inkscape:window-maximized="1"
     inkscape:current-layer="layer2" /><defs
     id="defs2" /><g
     inkscape:label="Слой 1"
     inkscape:groupmode="layer"
     id="layer1"
     style="display:inline"><path
       style="opacity:1;fill:none;stroke:#000000;stroke-width:4.15255;stroke-linecap:round;stroke-linejoin:round"
       d="m 194.07192,435.75256 c 73.77518,1.82572 81.16557,-11.03956 81.16557,-11.03956 l -71.43055,0.0126"
       id="path2471"
       sodipodi:nodetypes="ccc" /><path
       style="opacity:1;fill:none;stroke:#000000;stroke-width:4;stroke-linecap:round;stroke-linejoin:round;stroke-dasharray:none"
       d="m 193.77936,342.57423 c 0,0 4.75798,20.32953 12.11121,22.49224 7.35324,2.16272 35.036,-1.29763 42.38924,3.02781 7.35323,4.32543 5.19051,21.62716 5.19051,21.62716"
       id="path3295" /><path
       style="opacity:1;fill:#06aae0;fill-opacity:1;stroke:#06aae0;stroke-width:1.73017;stroke-linecap:round;stroke-linejoin:round;stroke-dasharray:none;stroke-opacity:1"
       d="m 207.41329,363.12224 c -3.23839,-0.62244 -6.50615,-5.61987 -9.47641,-14.49241 l -1.44803,-4.32543 3.94391,-0.35197 c 2.16915,-0.19359 7.90263,-0.25597 12.74107,-0.13863 7.85414,0.19049 8.8606,0.29777 9.38896,1.00079 2.36738,3.14999 7.98274,15.85218 7.98274,18.0573 0,0.60222 -1.234,0.67495 -10.70544,0.63094 -5.88799,-0.0274 -11.48005,-0.19863 -12.4268,-0.38059 z"
       id="path7301" /><path
       style="opacity:1;fill:#06aae0;fill-opacity:1;stroke:#06aae0;stroke-width:4;stroke-linecap:round;stroke-linejoin:round;stroke-dasharray:none;stroke-opacity:1"
       d="m 256.93067,384.08014 c 0,-8.38278 -1.75503,-14.11255 -5.29853,-17.29846 -2.49244,-2.24092 -4.76626,-3.03077 -10.96657,-3.80945 l -4.17034,-0.52374 -1.81804,-5.17916 c -0.99992,-2.84853 -2.63815,-6.79574 -3.64052,-8.77157 l -3.12012,-3.80868 4.88298,0.44745 c 1.96778,0.18032 6.27223,0.34377 9.5562,0.48138 7.06168,0.2959 12.79839,1.10184 16.9012,2.3744 2.24061,0.69497 3.50866,1.42148 5.13646,2.94287 4.40636,4.11829 8.01864,10.3674 9.19057,15.89934 0.74812,3.53135 0.83844,10.074 0.1722,12.47363 -0.58648,2.11238 -4.42614,6.05838 -7.74913,7.96376 -2.09694,1.20237 -2.76059,1.36052 -5.72415,1.36411 l -3.35221,0.004 z"
       id="path13513"
       sodipodi:nodetypes="ssscsscsssssssscs" /><path
       style="opacity:1;fill:#06aae0;fill-opacity:1;stroke:#000000;stroke-width:4;stroke-linecap:round;stroke-linejoin:round;stroke-dasharray:none;stroke-opacity:1"
       id="path14293"
       sodipodi:type="arc"
       sodipodi:cx="45.741447"
       sodipodi:cy="288.93887"
       sodipodi:rx="2.0545802"
       sodipodi:ry="2.1627162"
       sodipodi:start="0.00065719608"
       sodipodi:end="0"
       sodipodi:arc-type="slice"
       d="m 47.796027,288.94029 a 2.0545802,2.1627162 0 0 1 -2.055592,2.1613 2.0545802,2.1627162 0 0 1 -2.053568,-2.16343 2.0545802,2.1627162 0 0 1 2.054918,-2.162 2.0545802,2.1627162 0 0 1 2.054243,2.16271 h -2.054581 z" /><path
       style="opacity:1;fill:#06aae0;fill-opacity:1;stroke:#000000;stroke-width:4;stroke-linecap:round;stroke-linejoin:round;stroke-dasharray:none;stroke-opacity:1"
       id="path14763"
       sodipodi:type="arc"
       sodipodi:cx="61.741447"
       sodipodi:cy="288.93887"
       sodipodi:rx="2.0545802"
       sodipodi:ry="2.1627162"
       sodipodi:start="0.00065719608"
       sodipodi:end="0"
       sodipodi:arc-type="slice"
       d="m 63.796027,288.94029 a 2.0545802,2.1627162 0 0 1 -2.055592,2.1613 2.0545802,2.1627162 0 0 1 -2.053568,-2.16343 2.0545802,2.1627162 0 0 1 2.054918,-2.162 2.0545802,2.1627162 0 0 1 2.054243,2.16271 h -2.054581 z" /><path
       style="opacity:1;fill:#06aae0;fill-opacity:1;stroke:#000000;stroke-width:4;stroke-linecap:round;stroke-linejoin:round;stroke-dasharray:none;stroke-opacity:1"
       id="path14765"
       sodipodi:type="arc"
       sodipodi:cx="77.741447"
       sodipodi:cy="288.93887"
       sodipodi:rx="2.0545802"
       sodipodi:ry="2.1627162"
       sodipodi:start="0.00065719608"
       sodipodi:end="0"
       sodipodi:arc-type="slice"
       d="m 79.796027,288.94029 a 2.0545802,2.1627162 0 0 1 -2.055592,2.1613 2.0545802,2.1627162 0 0 1 -2.053568,-2.16343 2.0545802,2.1627162 0 0 1 2.054918,-2.162 2.0545802,2.1627162 0 0 1 2.054243,2.16271 h -2.054581 z" /><path
       style="opacity:1;fill:#06aae0;fill-opacity:1;stroke:#000000;stroke-width:4;stroke-linecap:round;stroke-linejoin:round;stroke-dasharray:none;stroke-opacity:1"
       id="path14767"
       sodipodi:type="arc"
       sodipodi:cx="93.741447"
       sodipodi:cy="288.93887"
       sodipodi:rx="2.0545802"
       sodipodi:ry="2.1627162"
       sodipodi:start="0.00065719608"
       sodipodi:end="0"
       sodipodi:arc-type="slice"
       d="m 95.796027,288.94029 a 2.0545802,2.1627162 0 0 1 -2.055592,2.1613 2.0545802,2.1627162 0 0 1 -2.053568,-2.16343 2.0545802,2.1627162 0 0 1 2.054918,-2.162 2.0545802,2.1627162 0 0 1 2.054243,2.16271 h -2.054581 z" /><path
       style="opacity:1;fill:#06aae0;fill-opacity:1;stroke:#000000;stroke-width:4;stroke-linecap:round;stroke-linejoin:round;stroke-dasharray:none;stroke-opacity:1"
       id="path14769"
       sodipodi:type="arc"
       sodipodi:cx="109.74146"
       sodipodi:cy="288.93887"
       sodipodi:rx="2.0545802"
       sodipodi:ry="2.1627162"
       sodipodi:start="0.00065719608"
       sodipodi:end="0"
       sodipodi:arc-type="slice"
       d="m 111.79604,288.94029 a 2.0545802,2.1627162 0 0 1 -2.05559,2.1613 2.0545802,2.1627162 0 0 1 -2.05357,-2.16343 2.0545802,2.1627162 0 0 1 2.05492,-2.162 2.0545802,2.1627162 0 0 1 2.05424,2.16271 h -2.05458 z" /><path
       style="opacity:1;fill:#06aae0;fill-opacity:1;stroke:#000000;stroke-width:4;stroke-linecap:round;stroke-linejoin:round;stroke-dasharray:none;stroke-opacity:1"
       id="path14771"
       sodipodi:type="arc"
       sodipodi:cx="125.74146"
       sodipodi:cy="288.93887"
       sodipodi:rx="2.0545802"
       sodipodi:ry="2.1627162"
       sodipodi:start="0.00065719608"
       sodipodi:end="0"
       sodipodi:arc-type="slice"
       d="m 127.79604,288.94029 a 2.0545802,2.1627162 0 0 1 -2.05559,2.1613 2.0545802,2.1627162 0 0 1 -2.05357,-2.16343 2.0545802,2.1627162 0 0 1 2.05492,-2.162 2.0545802,2.1627162 0 0 1 2.05424,2.16271 h -2.05458 z" /><path
       style="opacity:1;fill:#06aae0;fill-opacity:1;stroke:#000000;stroke-width:4;stroke-linecap:round;stroke-linejoin:round;stroke-dasharray:none;stroke-opacity:1"
       id="path14773"
       sodipodi:type="arc"
       sodipodi:cx="141.74146"
       sodipodi:cy="288.93887"
       sodipodi:rx="2.0545802"
       sodipodi:ry="2.1627162"
       sodipodi:start="0.00065719608"
       sodipodi:end="0"
       sodipodi:arc-type="slice"
       d="m 143.79603,288.94029 a 2.0545802,2.1627162 0 0 1 -2.05559,2.1613 2.0545802,2.1627162 0 0 1 -2.05357,-2.16343 2.0545802,2.1627162 0 0 1 2.05492,-2.162 2.0545802,2.1627162 0 0 1 2.05425,2.16271 h -2.05458 z" /><path
       style="opacity:1;fill:#beeff4;fill-opacity:1;stroke:#beeff4;stroke-width:1.22342;stroke-linecap:round;stroke-linejoin:round;stroke-dasharray:none;stroke-opacity:1"
       d="m 33.032258,308.454 v -25.3859 h 61.476703 61.476699 v 25.3859 25.3859 H 94.508961 33.032258 Z m 14.709718,-15.76634 c 2.873501,-1.48594 2.776437,-6.20731 -0.156223,-7.59895 -2.880248,-1.36676 -5.989576,0.64614 -5.989576,3.8775 0,3.20048 3.294965,5.19567 6.145799,3.72145 z m 16.804916,-0.60802 c 2.244355,-2.15023 1.636868,-5.88666 -1.148776,-7.0657 -1.927969,-0.81602 -4.005602,-0.19189 -5.143806,1.54523 -1.25721,1.91875 -0.583236,5.07158 1.312486,6.13978 1.362969,0.768 3.855604,0.45802 4.980096,-0.61931 z m 15.458473,0.50491 c 2.641592,-1.61084 2.49173,-5.7047 -0.270489,-7.38893 -1.154153,-0.70373 -2.297834,-0.75762 -3.694453,-0.17407 -1.752477,0.73223 -2.518872,2.28985 -2.375674,4.82834 0.05226,0.92635 1.3591,2.62834 2.315085,3.01507 1.115153,0.45113 3.046507,0.31659 4.025531,-0.28041 z m 15.755726,0.10311 c 2.798839,-1.44733 2.769951,-6.02036 -0.04757,-7.53141 -1.284548,-0.68891 -2.47601,-0.70992 -3.829739,-0.0675 -2.860523,1.35741 -3.064467,5.8133 -0.342049,7.47325 1.178683,0.71869 2.969484,0.77204 4.21936,0.1257 z m 16.835329,-0.65068 c 2.73405,-2.73405 0.82557,-7.44362 -3.01431,-7.43846 -1.05469,10e-4 -2.64077,0.94129 -3.30868,1.96065 -1.2675,1.93444 -0.68331,4.85258 1.20986,6.04355 1.45054,0.91252 3.90663,0.64076 5.11313,-0.56574 z m 15.39514,0.51782 c 1.91221,-1.18181 2.50283,-4.07255 1.22922,-6.01633 -2.00797,-3.06454 -6.69333,-2.23779 -7.50604,1.32447 -0.46539,2.03986 0.69769,4.4411 2.46208,5.08312 1.03324,0.37597 2.87978,0.18658 3.81474,-0.39126 z m 15.78865,0.13286 c 2.79884,-1.44733 2.76995,-6.02036 -0.0476,-7.53141 -1.28454,-0.68891 -2.476,-0.70992 -3.82973,-0.0675 -2.86053,1.35741 -3.06447,5.8133 -0.34205,7.47325 1.17868,0.71869 2.96948,0.77204 4.21936,0.1257 z"
       id="path14775" /><path
       style="opacity:1;fill:#beeff4;fill-opacity:1;stroke:#beeff4;stroke-width:1.22342;stroke-linecap:round;stroke-linejoin:round;stroke-dasharray:none;stroke-opacity:1"
       d="m 216.39188,389.58596 c -2.69152,-0.049 -10.05496,-0.19473 -16.36321,-0.32392 l -11.46953,-0.23488 -1.63104,-0.89376 c -3.14658,-1.72424 -4.71168,-4.54986 -4.67013,-8.43144 0.0397,-3.70797 0.51527,-3.51318 -9.17059,-3.75613 -4.44346,-0.11145 -9.54093,-0.20292 -11.32771,-0.20327 l -3.24869,-6.1e-4 -2.25668,-1.47776 c -4.68989,-3.07114 -12.2147,-8.92841 -12.54953,-9.7685 -0.18305,-0.45925 -0.42397,-3.18111 -0.5354,-6.04857 -0.18979,-4.8842 -0.25699,-5.32478 -1.06378,-6.97378 -0.57074,-1.16658 -1.25361,-2.01991 -2.02479,-2.53025 -2.52287,-1.66956 -2.11129,-1.6456 -28.27088,-1.6456 H 87.611931 l -2.286253,2.31846 c -3.153111,3.19754 -7.729842,6.59029 -11.105082,8.23225 -1.557513,0.75768 -2.992318,1.37761 -3.188455,1.37761 -0.359873,0 -0.285049,-11.62878 0.117586,-18.27479 l 0.171399,-2.82916 h 41.819044 41.81905 l 3.71732,4.23621 c 2.04452,2.32992 4.32631,4.79756 5.07063,5.48365 2.83059,2.60915 5.51597,3.37401 12.73073,3.62601 7.3401,0.25639 10.69311,-0.60105 14.51099,-3.71076 l 1.5864,-1.29214 0.98166,3.09256 c 1.07711,3.39329 2.71241,7.28352 4.25709,10.1272 2.22566,4.09736 5.01725,6.81712 7.69403,7.49607 2.67908,0.67953 9.30791,0.96197 17.81149,0.75889 l 8.45696,-0.20196 0.22253,2.96813 c 0.45055,6.0095 -0.55281,12.14396 -2.83728,17.34685 l -0.77219,1.75866 -3.55202,-0.0681 c -1.95361,-0.0375 -5.75417,-0.10818 -8.44568,-0.15715 z"
       id="path24506" /><path
       style="opacity:1;fill:#beeff4;fill-opacity:1;stroke:#beeff4;stroke-width:1.22342;stroke-linecap:round;stroke-linejoin:round;stroke-dasharray:none;stroke-opacity:1"
       d="M 50.643485,362.24712 C 47.34803,358.58178 45.202519,351.3609 44.507118,341.5947 l -0.199173,-2.79717 3.767175,-0.17766 c 2.071946,-0.0977 7.167642,-0.25987 11.323768,-0.36036 l 7.556595,-0.18272 -0.139878,2.54584 c -0.07693,1.4002 -0.224515,7.19099 -0.327963,12.86841 l -0.188086,10.32258 h -7.123824 -7.123824 z"
       id="path24508" /><path
       style="opacity:1;fill:#beeff4;fill-opacity:1;stroke:#beeff4;stroke-width:1.22342;stroke-linecap:round;stroke-linejoin:round;stroke-dasharray:none;stroke-opacity:1"
       d="m 235.4313,389.87372 c -1.13548,-0.0497 -2.06451,-0.14514 -2.06451,-0.21199 0,-0.0668 0.40385,-1.33368 0.89744,-2.81518 1.6049,-4.81702 1.98557,-7.36322 1.99739,-13.36011 l 0.0108,-5.46696 2.75269,0.20626 c 3.03887,0.2277 6.59555,0.94378 7.83931,1.57832 3.09309,1.57803 4.63783,6.49292 4.63305,14.74097 -0.002,2.73896 -0.0558,5.02742 -0.12054,5.08548 -0.16654,0.14942 -13.45856,0.35216 -15.94561,0.24321 z"
       id="path24510" /><path
       style="opacity:1;fill:#beeff4;fill-opacity:1;stroke:#beeff4;stroke-width:1.22342;stroke-linecap:round;stroke-linejoin:round;stroke-dasharray:none;stroke-opacity:1"
       d="m 222.73835,408.24124 -2.21744,-0.10555 v -3.00246 c 0,-1.65135 0.0839,-3.60661 0.18652,-4.34502 l 0.18652,-1.34257 4.32483,-2.64031 4.32483,-2.64031 16.13381,-0.0416 c 8.8736,-0.0229 16.13381,0.0175 16.13381,0.0898 0,0.0722 -0.28759,0.8829 -0.63909,1.80143 l -0.6391,1.67005 -1.57835,0.18963 c -0.86809,0.1043 -4.07161,0.19082 -7.11894,0.19229 -5.20842,0.002 -5.59084,0.0422 -6.37865,0.66187 l -0.83806,0.65922 0.11074,4.54031 0.11074,4.5403 -9.94236,-0.0608 c -5.4683,-0.0334 -10.94021,-0.10827 -12.15981,-0.16633 z"
       id="path24512" /><path
       style="opacity:1;fill:#beeff4;fill-opacity:1;stroke:#beeff4;stroke-width:1.22342;stroke-linecap:round;stroke-linejoin:round;stroke-dasharray:none;stroke-opacity:1"
       d="m 187.48865,403.27517 -13.30466,-0.15928 -4.28196,-2.71906 c -2.35508,-1.49549 -4.52282,-2.99031 -4.8172,-3.32182 -0.44646,-0.50276 -0.53305,-1.1933 -0.522,-4.16266 l 0.0132,-3.5599 2.16274,-1.52621 c 2.60473,-1.83811 5.20248,-4.57281 5.94718,-6.26072 l 0.54522,-1.23577 h 2.21444 c 2.45558,0 2.3525,-0.0942 2.69913,2.46769 0.29357,2.16984 1.80439,5.01959 3.62793,6.84313 1.89451,1.89451 3.94309,3.02202 6.32764,3.48262 0.94939,0.18339 8.2775,0.40831 16.82198,0.51632 8.32688,0.10526 15.39359,0.26378 15.7038,0.35227 0.43646,0.12451 0.153,0.41365 -1.25345,1.27858 -2.85369,1.75495 -2.73197,1.54621 -2.97423,5.1004 l -0.21838,3.20391 -7.69338,-0.0701 c -4.23137,-0.0386 -13.68049,-0.14178 -20.99805,-0.22939 z"
       id="path24514" /><path
       style="opacity:1;fill:#beeff4;fill-opacity:1;stroke:#beeff4;stroke-width:1.22342;stroke-linecap:round;stroke-linejoin:round;stroke-dasharray:none;stroke-opacity:1"
       d="m 186.85271,422.00538 -2.31813,-0.1033 -2.64151,-6.64041 c -1.45283,-3.65222 -2.73066,-6.88358 -2.83962,-7.18079 -0.18669,-0.50923 0.266,-0.53569 7.85032,-0.45879 l 8.04843,0.0816 3.12226,7.26404 3.12225,7.26404 -6.01293,-0.0616 c -3.30711,-0.0339 -7.05609,-0.10804 -8.33107,-0.16485 z"
       id="path24516" /><path
       style="opacity:1;fill:#beeff4;fill-opacity:1;stroke:#beeff4;stroke-width:1.22342;stroke-linecap:round;stroke-linejoin:round;stroke-dasharray:none;stroke-opacity:1"
       d="m 204.72367,433.62294 -1.57501,-0.10439 1.00842,-1.4985 c 0.84778,-1.2598 1.66983,-3.08864 2.16572,-4.81814 0.0868,-0.30276 6.46002,-0.37758 30.62818,-0.35955 l 30.51855,0.0228 -2.14098,0.75183 c -9.16162,3.21725 -25.82354,5.40607 -44.04301,5.78579 -4.03727,0.0841 -9.06093,0.19159 -11.16368,0.23878 -2.10274,0.0472 -4.53193,0.0388 -5.39819,-0.0186 z"
       id="path24518" /><path
       style="opacity:0.5;fill:#000000;fill-opacity:1;stroke:#000000;stroke-width:4;stroke-linecap:round;stroke-linejoin:round;stroke-dasharray:none;stroke-opacity:1"
       d="m 33.032258,319.58742 -1.730173,-15.98265 3.488835,3.24592 c 7.531281,7.00691 21.195447,12.29586 41.67264,17.34901 12.309297,3.03756 31.12812,6.46872 46.18399,8.42054 3.95317,0.51248 21.77609,3.35959 22.02842,3.41924 0.25233,0.0597 -35.91038,-2.25457 -62.783497,-2.23505 l -48.860215,0.0355 z"
       id="path25589"
       sodipodi:nodetypes="ccssssscc" /><path
       style="opacity:0.5;fill:#000000;fill-opacity:1;stroke:#000000;stroke-width:4;stroke-linecap:round;stroke-linejoin:round;stroke-dasharray:none;stroke-opacity:1"
       d="m 50.044907,361.59153 c -3.007691,-4.06145 -4.886082,-10.84428 -5.537789,-19.99683 l -0.199173,-2.79717 3.767175,-0.17766 c 2.071946,-0.0977 7.193829,-0.26064 11.381963,-0.36207 l 7.614789,-0.18443 -0.197824,1.44328 c -0.108803,0.7938 -0.198321,3.79826 -0.198928,6.67658 l -0.0011,5.23329 -2.647541,1.04013 c -4.977454,1.95548 -9.924236,5.90066 -11.776354,9.39194 -0.391946,0.73883 -0.781683,1.34123 -0.866082,1.33867 -0.0844,-0.003 -0.687008,-0.72513 -1.339131,-1.60573 z"
       id="path26628" /><path
       style="opacity:0.5;fill:#000000;fill-opacity:1;stroke:#000000;stroke-width:4;stroke-linecap:round;stroke-linejoin:round;stroke-dasharray:none;stroke-opacity:1"
       d="m 71.024999,344.23121 c 0.08391,-3.20044 0.218397,-5.8848 0.298852,-5.96526 0.08046,-0.0804 18.900243,-0.11138 41.821749,-0.0687 l 41.67547,0.0776 -1.31745,1.4967 c -1.76025,1.99973 -3.19333,2.61717 -6.09408,2.62562 -4.05828,0.0118 -6.97748,1.06679 -9.68312,3.4994 l -1.55823,1.40098 H 111.9218 c -20.842867,0 -24.315751,0.0628 -24.740491,0.44715 -0.337517,0.30545 -1.847497,0.55516 -4.764823,0.78798 -2.3489,0.18745 -5.715889,0.60349 -7.482197,0.92454 -1.766308,0.32105 -4.619335,1.66718 -4.853193,1.66973 -0.353572,0.004 0.817033,-2.05689 0.943903,-6.89568 z"
       id="path26630"
       sodipodi:nodetypes="ssscssscsssscss" /><path
       style="opacity:0.5;fill:#000000;fill-opacity:1;stroke:#000000;stroke-width:0.432543;stroke-linecap:round;stroke-linejoin:round;stroke-dasharray:none;stroke-opacity:1"
       d="m 204.3226,403.54125 c -1.66529,-0.0138 -9.10485,-0.0743 -16.53236,-0.13436 l -13.50455,-0.10923 -4.82447,-3.06928 -4.82446,-3.06928 -0.0684,-1.93459 c -0.0376,-1.06403 -0.10078,-2.81224 -0.14035,-3.88492 l -0.0719,-1.95033 1.11357,-0.75268 c 3.80677,-2.57307 6.53937,-5.43661 7.45071,-7.80772 l 0.25915,-0.67427 2.34335,-0.002 2.34334,-0.002 0.0662,0.72992 c 0.46423,5.122 3.24236,9.29079 7.54938,11.32838 1.86638,0.88296 3.24758,1.12399 6.45933,1.12718 2.69631,0.003 25.9338,0.42418 27.87201,0.50555 1.16187,0.0488 3.05483,-0.22501 3.05483,-0.11866 0,0.0776 -2.44387,1.03987 -3.5805,1.74191 -1.20603,0.74491 -2.17715,1.42139 -2.33208,1.62451 -0.34224,0.4487 -0.46227,1.28046 -0.4659,3.22854 -0.002,0.83264 -0.0341,1.91535 -0.0723,2.40602 l -0.0694,0.89212 -4.49864,-0.0253 c -2.47426,-0.0139 -5.86116,-0.0366 -7.52645,-0.0504 z"
       id="path27358"
       sodipodi:nodetypes="cscccsscsscccsscsssscscscc" /><path
       style="opacity:0.5;fill:#000000;fill-opacity:1;stroke:#000000;stroke-width:0.432543;stroke-linecap:round;stroke-linejoin:round;stroke-dasharray:none;stroke-opacity:1"
       d="m 230.76181,408.47719 c -3.00348,-0.0395 -6.57099,-0.0787 -7.9278,-0.0871 l -2.46694,-0.0152 0.0741,-2.51415 c 0.0408,-1.38279 0.10467,-3.3857 0.14202,-4.45092 l 0.0679,-1.93676 4.43357,-2.7428 4.43356,-2.74279 1.89238,0.0599 c 3.36486,0.10649 9.56083,0.10978 20.19436,0.0107 8.88362,-0.0828 10.40832,-0.0748 10.40977,0.0541 9.7e-4,0.0831 -0.34922,0.99045 -0.77811,2.01638 l -0.77979,1.86535 -1.08724,0.005 c -3.35275,0.0151 -13.12957,0.31153 -13.36675,0.40526 -0.48168,0.19035 -0.94555,0.66153 -1.13205,1.14989 -0.16413,0.42975 -0.16971,0.7746 -0.0616,3.80871 0.0654,1.83489 0.11877,3.76195 0.11863,4.28236 l -2.6e-4,0.94619 -4.35247,-0.0211 c -2.39386,-0.0116 -6.80985,-0.0534 -9.81332,-0.0929 z"
       id="path27360" /><path
       style="opacity:0.5;fill:#000000;fill-opacity:1;stroke:#000000;stroke-width:0.432543;stroke-linecap:round;stroke-linejoin:round;stroke-dasharray:none;stroke-opacity:1"
       d="m 190.05195,422.19676 c -3.03142,-0.0511 -5.54255,-0.12846 -5.5803,-0.17189 -0.0926,-0.10654 -5.85018,-14.53594 -5.8094,-14.5593 0.0392,-0.0224 16.35439,0.11318 16.37591,0.13611 0.0139,0.0148 5.82466,13.55789 6.16609,14.37126 l 0.14752,0.35144 -2.89408,-0.0174 c -1.59175,-0.01 -5.37433,-0.0592 -8.40574,-0.11027 z"
       id="path27362" /><path
       style="opacity:0.5;fill:#000000;fill-opacity:1;stroke:#000000;stroke-width:0.432543;stroke-linecap:round;stroke-linejoin:round;stroke-dasharray:none;stroke-opacity:1"
       d="m 203.76436,434.13922 c -0.2644,0.9915 -1.17084,-0.20777 -0.7001,-0.76141 1.53619,-1.8067 2.65941,-4.03633 3.07833,-6.11055 l 0.13562,-0.67151 0.5361,-0.0936 c 0.29485,-0.0515 14.12213,-0.11456 30.72728,-0.14013 l 26.29829,-1.34413 -2.19861,0.27529 c -0.64251,0.0804 3.7918,0.36353 1.05845,1.27386 -2.68276,0.89348 -6.9897,1.58568 -9.77008,2.18031 -8.78564,1.87896 -11.74534,1.86246 -24.54682,2.3884 -5.84716,0.24023 -23.51794,-1.12344 -24.18592,1.38145 z"
       id="path27368"
       sodipodi:nodetypes="ssscsscssssss" /><path
       style="opacity:1;fill:none;fill-opacity:1;stroke:#ffffff;stroke-width:4;stroke-linecap:round;stroke-linejoin:round;stroke-dasharray:none;stroke-opacity:1"
       d="m 234.11402,347.87288 c 24.7631,0.86509 24.65496,3.24407 28.22344,6.05561 6.14508,4.84159 8.71965,17.06915 8.71965,17.06915"
       id="path27385"
       sodipodi:nodetypes="csc" /><path
       style="opacity:0.5;fill:#000000;fill-opacity:1;stroke:#000000;stroke-width:4;stroke-linecap:round;stroke-linejoin:round;stroke-dasharray:none;stroke-opacity:1"
       d="m 162.56153,390.11709 c 12.23417,-0.45879 12.23417,0.45878 14.37515,2.75268 2.14098,2.29391 4.12903,6.7288 11.16368,6.88173 7.03465,0.15292 30.27957,0.0765 30.27957,0.0765 l 30.3074,-0.0464 12.20634,-0.18301 3.74671,-6.95819 -78.22381,-0.97547 -5.59496,-6.0275 -1.34083,-7.08713 -8.2024,0.0973 -1.37635,3.51732 -3.67025,3.3644 z"
       id="path27821"
       sodipodi:nodetypes="cssccccccccccc" /></g><g
     inkscape:groupmode="layer"
     id="layer2"
     inkscape:label="Слой 2"><rect
       style="opacity:1;fill:none;stroke:#000000;stroke-width:4;stroke-linecap:round;stroke-linejoin:round;stroke-dasharray:none"
       id="rect411"
       width="127.40665"
       height="54.986031"
       x="30.845821"
       y="280.96521" /><path
       style="opacity:1;fill:none;stroke:#000000;stroke-width:4;stroke-linecap:round;stroke-linejoin:round;stroke-dasharray:none"
       d="m 42.245365,336.58111 c 0,25.48134 9.387858,29.5047 9.387858,29.5047 h 16.764034 l 0.670561,-30.17526 z"
       id="path1697" /><path
       style="opacity:1;fill:none;stroke:#000000;stroke-width:4;stroke-linecap:round;stroke-linejoin:round;stroke-dasharray:none"
       d="m 68.515899,362.25707 c 7.915299,-1.79358 15.105486,-7.25475 19.920744,-12.80228 15.745257,0.041 31.500417,-0.0824 47.239357,0.0625 9.42577,1.16606 2.53329,13.63557 7.40103,17.89693 4.97296,3.39995 9.69374,7.55852 14.82076,10.49504 7.42747,0.0774 14.85495,0.15474 22.28243,0.23211 -1.35311,6.57298 4.11407,13.69232 10.92339,13.09363 15.72034,0.29802 31.44068,0.59603 47.16102,0.89405 15.2233,-0.10161 22.0724,-0.41342 26.58887,-0.0716 6.14357,-3.31647 11.26812,-7.55074 12.49587,-12.71214 1.19951,-10.08632 -0.74465,-16.0225 -2.70957,-20.36508 -2.8417,-5.61712 -7.72544,-11.99621 -13.24088,-13.99972 -4.84358,-1.99467 -16.3375,-3.05743 -29.23582,-3.21932 -12.53662,0.16296 -25.14353,-0.61984 -37.63959,0.22562 -5.14209,3.57796 -6.23967,7.61153 -16.41044,7.50886 -7.91138,-0.29718 -11.25983,-0.70847 -14.28832,-4.78369 -3.08303,-2.92356 -4.98066,-5.84713 -8.06369,-8.77069"
       id="path1699"
       sodipodi:nodetypes="ccccccccccccccccc" /><path
       style="opacity:1;fill:none;stroke:#000000;stroke-width:4;stroke-linecap:round;stroke-linejoin:round;stroke-dasharray:none"
       d="m 223.10053,341.63415 c 20.11684,29.16942 6.90201,49.63839 6.90201,49.63839 l -11.39954,7.0409 -0.33528,12.0701 28.83413,0.33528 -0.33528,-10.3937 15.08763,-0.33528 3.21783,-7.90583"
       id="path1703"
       sodipodi:nodetypes="cccccccc" /><path
       style="opacity:1;fill:none;stroke:#000000;stroke-width:4;stroke-linecap:round;stroke-linejoin:round;stroke-dasharray:none"
       d="m 216.59131,405.68961 -42.91592,-0.33528 -11.06426,-7.04089 -0.33529,-10.05842 c 0,0 8.38202,-4.86158 9.05258,-9.22023"
       id="path2529"
       sodipodi:nodetypes="ccccc" /><path
       style="display:inline;opacity:1;fill:none;stroke:#000000;stroke-width:4;stroke-linecap:round;stroke-linejoin:round;stroke-dasharray:none"
       d="m 175.68707,405.68961 7.37618,18.44044 21.45796,0.33528 -8.04674,-18.77572"
       id="path2531" /><path
       style="opacity:1;fill:#beeff4;fill-opacity:1;stroke:#000000;stroke-width:3.92985;stroke-linecap:round;stroke-linejoin:round;stroke-dasharray:none"
       id="path1635"
       sodipodi:type="arc"
       sodipodi:cx="193.83344"
       sodipodi:cy="425.44861"
       sodipodi:rx="10.60339"
       sodipodi:ry="11.141383"
       sodipodi:start="0.00065719608"
       sodipodi:end="3.1415927"
       sodipodi:arc-type="slice"
       d="m 204.43682,425.45593 a 10.60339,11.141383 0 0 1 -10.60687,11.13406 10.60339,11.141383 0 0 1 -10.5999,-11.14138 h 10.60339 z" /><path
       style="display:inline;opacity:0.5;fill:#000000;fill-opacity:1;stroke:#000000;stroke-width:0.432543;stroke-linecap:round;stroke-linejoin:round;stroke-dasharray:none;stroke-opacity:1"
       d="m 192.14276,434.38917 c -2.57449,-0.5867 -4.65746,-2.26693 -5.90812,-4.7658 -0.3319,-0.66316 -0.72767,-1.76178 -0.72767,-2.01996 0,-0.0487 3.74691,-0.0885 8.32646,-0.0885 4.57955,0 8.32646,0.0398 8.32646,0.0885 0,0.29386 -0.41294,1.39377 -0.82101,2.18686 -1.11305,2.16323 -2.93742,3.72326 -5.18053,4.4299 -0.97132,0.306 -3.03358,0.39279 -4.01559,0.169 z"
       id="path27382" /><path
       style="opacity:0.5;fill:#000000;fill-opacity:1;stroke:#000000;stroke-width:4;stroke-linecap:round;stroke-linejoin:round;stroke-dasharray:none;stroke-opacity:1"
       d="m 179.68937,415.04421 20.87455,-0.0765 -4.43489,-9.17562 h -20.3393 z"
       id="path27823"
       sodipodi:nodetypes="ccccc" /><path
       style="opacity:0.5;fill:#000000;fill-opacity:1;stroke:#000000;stroke-width:4;stroke-linecap:round;stroke-linejoin:round;stroke-dasharray:none;stroke-opacity:1"
       d="m 44.551951,354.25289 c 4.974247,-7.35323 24.546828,-11.46239 24.546828,-11.46239 0,0 62.078481,-0.8336 64.989611,-1.08136 5.08239,-0.43255 8.22938,-1.13491 11.02986,-1.73018 4.10763,-0.87311 6.92069,-3.0278 6.92069,-3.0278 l -89.212038,-0.54067 -20.005124,0.54067 -0.216271,9.9485 z"
       id="path27825"
       sodipodi:nodetypes="ccssccccc" /><path
       style="opacity:0.5;fill:#000000;fill-opacity:1;stroke:#000000;stroke-width:4;stroke-linecap:round;stroke-linejoin:round;stroke-dasharray:none;stroke-opacity:1"
       d="m 230.39485,391.39914 22.68004,0.99402 -0.81487,-16.08056 -4.97424,-7.30076 -9.97248,-2.08625 -31.69372,-0.7013 -5.41766,-4.81045 -3.79019,-8.45858 -3.15449,-9.00469 -4.31868,2.97083 c 0,0 4.77334,15.70461 10.73711,21.36928 6.10145,5.79544 12.73366,4.16543 19.64361,4.6073 7.37947,0.47189 8.19845,2.54953 11.00998,5.79361 2.81153,3.24407 2.81153,6.0556 2.81153,6.0556 z"
       id="path27827"
       sodipodi:nodetypes="ccccccccccssscc" /></g></svg>
