<?xml version="1.0" encoding="UTF-8" standalone="no"?>
<!-- Created with Inkscape (http://www.inkscape.org/) -->

<svg
   width="720"
   height="720"
   viewBox="0 0 720 720.00003"
   version="1.1"
   id="svg5"
   inkscape:version="1.1.1 (3bf5ae0d25, 2021-09-20)"
   sodipodi:docname="tomato.svg"
   xmlns:inkscape="http://www.inkscape.org/namespaces/inkscape"
   xmlns:sodipodi="http://sodipodi.sourceforge.net/DTD/sodipodi-0.dtd"
   xmlns="http://www.w3.org/2000/svg"
   xmlns:svg="http://www.w3.org/2000/svg">
  <sodipodi:namedview
     id="namedview7"
     pagecolor="#ffffff"
     bordercolor="#666666"
     borderopacity="1.0"
     inkscape:pageshadow="2"
     inkscape:pageopacity="0.0"
     inkscape:pagecheckerboard="false"
     inkscape:document-units="px"
     showgrid="false"
     units="px"
     width="720px"
     showborder="true"
     borderlayer="false"
     inkscape:showpageshadow="false"
     inkscape:zoom="0.73406285"
     inkscape:cx="-10.217109"
     inkscape:cy="394.3804"
     inkscape:window-width="1920"
     inkscape:window-height="1009"
     inkscape:window-x="-8"
     inkscape:window-y="-8"
     inkscape:window-maximized="1"
     inkscape:current-layer="svg5" />
  <defs
     id="defs2" />
  <path
     style="fill:#f30000;fill-opacity:1;stroke:#000000;stroke-width:8;stroke-linecap:butt;stroke-linejoin:miter;stroke-miterlimit:4;stroke-dasharray:none;stroke-opacity:1"
     d="M 355.78019,84.703428 C 148.83351,76.55436 78.294976,219.45676 81.760504,353.16539 84.941869,475.91033 179.31216,616.7747 376.81987,610.82264 570.4652,604.98698 639.34265,414.87512 634.30278,311.36573 629.23989,207.38354 545.77015,93.108024 355.78019,84.703428 Z"
     id="path857"
     sodipodi:nodetypes="csssc" />
  <path
     style="fill:#15bf00;fill-opacity:1;stroke:#000000;stroke-width:8;stroke-linecap:butt;stroke-linejoin:miter;stroke-miterlimit:4;stroke-dasharray:none;stroke-opacity:1"
     d="M 326.94748,59.940372 C 299.70186,38.143873 183.05596,43.944227 173.00971,53.810106 c -17.52233,17.207734 88.4335,-2.057961 100.8088,18.390796 0,0 12.94167,0.681141 -58.57809,10.217109 -71.51976,9.535968 -82.418,34.057029 -57.89694,26.564479 24.52106,-7.49254 138.27153,-25.883339 147.8075,-10.898246 9.53597,14.985096 -59.25923,10.217106 -83.78029,27.245626 -24.52106,17.02851 83.09915,-8.85483 102.17109,-8.17369 19.07193,0.68114 -23.15878,34.73817 0,32.69475 23.15878,-2.04342 12.26053,-54.491248 29.28904,-27.24562 17.02852,27.24562 84.46144,55.85352 64.70836,32.69474 -19.75308,-23.15878 -51.08554,-54.49124 -21.7965,-44.27413 29.28905,10.2171 102.85223,51.76668 101.48995,33.37588 -1.36228,-18.39079 -91.27284,-39.50615 -81.05573,-50.404399 10.21711,-10.89825 89.22941,21.115359 109.66363,10.217109 20.43422,-10.89825 -46.9987,-6.130262 -62.66493,-23.839921 -15.66623,-17.709655 49.72326,-10.217109 49.72326,-25.202201 0,-14.985093 -80.37458,19.753076 -100.12766,6.811405 -19.75308,-12.941671 8.17368,-17.709655 -8.85483,-26.564483 -17.02852,-8.854827 -23.83992,26.564483 -36.78159,22.47764 -12.94168,-4.086844 4.76798,-28.607905 -15.66624,-28.607905 -20.43422,0 -24.52106,30.651327 -24.52106,30.651327 z"
     id="path5838"
     sodipodi:nodetypes="cssssssssssssssssssssc" />
  <path
     style="fill:#ffe0e0;fill-opacity:1;stroke:#000000;stroke-width:8;stroke-linecap:butt;stroke-linejoin:miter;stroke-miterlimit:4;stroke-dasharray:none;stroke-opacity:1"
     d="m 242.35521,335.17704 c -73.6393,48.32014 -131.67153,-42.56787 -78.6003,-83.31408 53.07122,-40.74622 163.55928,25.48717 78.6003,83.31408"
     id="path8651"
     sodipodi:nodetypes="csc" />
  <ellipse
     style="opacity:1;fill:#000000;fill-opacity:1;stroke:#000000;stroke-width:8;stroke-linecap:round;stroke-miterlimit:4;stroke-dasharray:none;stroke-opacity:1;paint-order:markers fill stroke"
     id="path10204"
     cx="175.77408"
     cy="291.10245"
     rx="17.352144"
     ry="13.715647" />
</svg>
